<?xml version="1.0" standalone="no"?><!DOCTYPE svg PUBLIC "-//W3C//DTD SVG 1.1//EN" "http://www.w3.org/Graphics/SVG/1.1/DTD/svg11.dtd" ><svg xmlns="http://www.w3.org/2000/svg"><metadata></metadata><defs><font id="HappyZcool" horiz-adv-x="1000"><font-face font-family="HappyZcool" font-weight="400" font-stretch="normal" units-per-em="1000" panose-1="2 1 6 0 3 1 1 1 1 1" ascent="859" descent="-141" x-height="1" bbox="0 -107 929 769" underline-thickness="46" underline-position="-85" unicode-range="U+0045-ff0c" /><missing-glyph horiz-adv-x="1000" d="M250 656 q62 0 121 -33 q59 -33 92 -93.5 q33 -60.5 33 -123 q0 -62.5 -31 -123 q-31 -60.5 -92 -94 q-61 -33.5 -125 -33.5 q-64 0 -123 33.5 q-59 33.5 -92 94 q-33 60.5 -33 123 q0 62.5 33 123 q33 60.5 94 93.5 q61 33 123 33 ZM246 633 q-55 0 -109.5 -29.5 q-54.5 -29.5 -84 -84 q-29.5 -54.5 -29.5 -113 q0 -58.5 29.5 -111.5 q29.5 -53 84 -84 q54.5 -31 111.5 -31 q57 0 111.5 31 q54.5 31 84 84 q29.5 53 29.5 111.5 q0 58.5 -29.5 113 q-29.5 54.5 -84 84 q-54.5 29.5 -113.5 29.5 ZM371 566 l8 -101 l-12 0 q-16 47 -43 66.5 q-27 19.5 -64 15.5 q-37 -4 -70.5 -29.5 q-33.5 -25.5 -45 -60.5 q-11.5 -35 -5.5 -76 q6 -41 39 -74.5 q33 -33.5 84 -33.5 q70 0 109 55 l12 -8 q-47 -70 -133 -70 q-70 0 -115 45 q-45 45 -45 109.5 q0 64.5 39 109.5 q39 45 84 52.5 q45 7.5 74 1.5 q29 -6 47 -21.5 q18 -15.5 21.5 -7.5 q3.5 8 3.5 27 l12 0 Z" /><glyph glyph-name="uni306E" unicode="&#x306e;" d="M512 648 q31 -31 13.5 -62 q-17.5 -31 -58.5 -113 q-41 -82 -74.5 -154.5 q-33.5 -72.5 -68.5 -80.5 q-35 -8 -70 54.5 q-35 62.5 -31 146.5 q4 84 76 150.5 q72 66.5 142.5 80.5 q70.5 14 121 8 q50.5 -6 103.5 -33.5 q53 -27.5 88 -88 q35 -60.5 31 -140.5 q-4 -80 -50.5 -152.5 q-46.5 -72.5 -121 -99.5 q-74.5 -27 -123.5 -27 q-49 0 41 29 q90 29 141 99.5 q51 70.5 56.5 152.5 q5.5 82 -47 158 q-52.5 76 -169.5 72 ZM480 645 q-98 -12 -158 -74.5 q-60 -62.5 -64 -129 q-4 -66.5 19.5 -105.5 q23.5 -39 35 -41 q11.5 -2 23.5 9.5 q12 11.5 78 140.5 q66 129 68 151 q2 22 -2 49 Z" /><glyph glyph-name="uni4E00" unicode="&#x4e00;" d="M898 379 q1 -9 -4 -16.5 q-5 -7.5 -14 -8.5 l-740 -118 q-9 -1 -16 4 q-7 5 -8 13 l-14 87 q-2 10 3 17 q5 7 15 9 l739 118 q9 2 16 -3.5 q7 -5.5 9 -13.5 l14 -88 l0 0 Z" /><glyph glyph-name="uni4E09" unicode="&#x4e09;" d="M238 591 q-10 1 -17 9 q-7 8 -6 19 l5 52 q1 12 9 18.5 q8 6.5 20 5.5 l518 -45 q12 -1 19 -9.5 q7 -8.5 5 -18.5 l-4 -53 q-1 -12 -10 -19 q-9 -7 -19 -5 l-520 46 ZM730 411 q12 0 20 -8 q8 -8 8 -18 l0 -31 q1 -12 -7 -19.5 q-8 -7.5 -18 -7.5 l-489 -10 q-10 -1 -18 7 q-8 8 -8 18 l-2 31 q0 12 7.5 19.5 q7.5 7.5 19.5 8.5 l487 10 ZM864 66 q1 -11 -6.5 -19 q-7.5 -8 -18.5 -8 l-673 -16 q-12 0 -19.5 7 q-7.5 7 -7.5 18 l-2 65 q0 12 7.5 19.5 q7.5 7.5 18.5 8.5 l673 16 q11 0 19 -7.5 q8 -7.5 8 -18.5 l1 -65 Z" /><glyph glyph-name="uni4E24" unicode="&#x4e24;" d="M330 512 q10 0 18.5 6 q8.5 6 11.5 14 l39 111 q4 9 0 15.5 q-4 6.5 -13 7.5 l-229 15 q-8 1 -14.5 7.5 q-6.5 6.5 -5.5 15.5 l2 43 q2 10 8.5 16 q6.5 6 14.5 5 l689 -45 q9 -1 15.5 -7 q6.5 -6 5.5 -16 l-2 -43 q-1 -11 -8 -16.5 q-7 -5.5 -16 -5.5 l-109 8 q-9 0 -12 -0.5 q-3 -0.5 2 -3.5 q5 -2 5 -9 q0 -7 -3 -16 l-32 -76 q-3 -7 1 -13 q4 -6 12 -6 l170 3 q10 1 16 -5 q6 -6 6 -16 l0 -531 q0 -9 -6 -14 q-6 -5 -15 -3 l-122 23 q-8 2 -13 9 q-5 7 -4 17 l9 43 q1 9 8.5 14 q7.5 5 17.5 3 l16 -3 q9 -2 15 3.5 q6 5.5 6 14.5 l0 335 q0 9 -6 15.5 q-6 6.5 -15 4.5 l-120 -2 q-9 0 -18.5 -5.5 q-9.5 -5.5 -12.5 -15.5 l-39 -93 q-4 -8 -1 -11 q3 -3 11 2 l47 28 q8 4 19 4.5 q11 0.5 19 -3.5 l80 -42 q7 -4 9.5 -12.5 q2.5 -8.5 -1.5 -17.5 l-20 -37 q-4 -9 -13 -12 q-9 -3 -17 1 l-35 19 q-8 4 -19 4 q-11 0 -19 -4 l-234 -138 q-8 -5 -11 -2 q-3 3 1 11 l128 302 q3 8 -1 14 q-4 6 -13 6 l-96 -3 q-9 0 -17.5 -6 q-8.5 -6 -12.5 -14 l-11 -35 q-4 -8 -1.5 -11.5 q2.5 -3.5 9.5 0.5 q6 3 16 2.5 q10 -0.5 18 -5.5 l38 -18 q8 -5 11 -13.5 q3 -8.5 -1 -16.5 l-20 -39 q-5 -8 -13 -11.5 q-8 -3.5 -15 1.5 q-8 3 -18.5 2.5 q-10.5 -0.5 -19.5 -5.5 l-154 -85 q-8 -4 -11.5 -1.5 q-3.5 2.5 -0.5 12.5 l79 220 q4 10 -0.5 15.5 q-4.5 5.5 -13.5 5.5 l-83 -2 q-9 0 -14.5 -6.5 q-5.5 -6.5 -4.5 -15.5 l44 -413 q1 -9 -5.5 -16 q-6.5 -7 -14.5 -8 l-44 -5 q-10 -1 -16.5 4.5 q-6.5 5.5 -7.5 15.5 l-54 508 q-1 9 5 15.5 q6 6.5 15 6.5 l211 5 ZM469 644 q10 -2 14 -10 q4 -8 0 -18 l-28 -81 q-4 -9 0 -15 q4 -6 13 -6 l102 2 q10 0 18.5 6.5 q8.5 6.5 12.5 14.5 l38 91 q4 8 0 14.5 q-4 6.5 -13 7.5 l-186 11 q-10 1 -10.5 -0.5 q-0.5 -1.5 8.5 -3.5 l31 -13 Z" /><glyph glyph-name="uni4E66" unicode="&#x4e66;" d="M705 486 q-2 -9 3 -15 q5 -6 14 -5 l102 9 q10 2 15.5 -3.5 q5.5 -5.5 4.5 -15.5 l-29 -253 q-1 -9 -8 -15.5 q-7 -6.5 -16 -6.5 l-87 0 q-9 0 -15.5 6.5 q-6.5 6.5 -6.5 15.5 l0 45 q0 8 6.5 15 q6.5 7 15.5 7 l8 0 q9 0 16 5.5 q7 5.5 8 15.5 l8 67 q1 9 -4.5 15 q-5.5 6 -15.5 5 l-174 -18 q-10 -1 -16 -8 q-6 -7 -5 -16 l23 -346 q1 -10 -5.5 -16.5 q-6.5 -6.5 -15.5 -7.5 l-43 -2 q-10 -1 -16.5 4.5 q-6.5 5.5 -6.5 14.5 l-23 345 q-2 8 -8.5 14.5 q-6.5 6.5 -14.5 5.5 l-236 -23 q-9 -1 -16 4 q-7 5 -8 15 l-4 44 q-1 9 5 15.5 q6 6.5 15 7.5 l237 24 q9 1 15 8 q6 7 5 16 l-4 79 q-1 9 -8 15 q-7 6 -16 6 l-117 -2 q-9 0 -15 6.5 q-6 6.5 -6 15.5 l-2 44 q0 9 6.5 15 q6.5 6 15.5 8 l112 1 q9 0 15.5 7 q6.5 7 5.5 15 l-3 32 q0 9 6 16 q6 7 15 7 l44 3 q10 1 16.5 -5 q6.5 -6 7.5 -15 l2 -37 q0 -8 7 -15 q7 -7 16 -6 l167 2 q9 0 10 3.5 q1 3.5 -7 8.5 l-22 14 q-8 4 -9.5 13 q-1.5 9 3.5 17 l23 38 q4 8 12.5 9.5 q8.5 1.5 16.5 -3.5 l74 -44 q7 -6 9.5 -14.5 q2.5 -8.5 -2.5 -16.5 l-23 -37 q-5 -8 -13.5 -10.5 q-8.5 -2.5 -16.5 2.5 q-7 4 -14 1.5 q-7 -2.5 -8 -12.5 l-25 -134 ZM520 469 q1 -11 8 -16 q7 -5 15 -5 l45 4 q8 2 16 8.5 q8 6.5 9 16.5 l13 64 q1 8 -4.5 14.5 q-5.5 6.5 -13.5 6.5 l-72 -1 q-9 0 -15 -6.5 q-6 -6.5 -6 -15.5 l5 -70 Z" /><glyph glyph-name="uni4E86" unicode="&#x4e86;" d="M722 672 q0 -8 -4.5 -14 q-4.5 -6 -11.5 -7 q-6 0 -13 -5 q-7 -5 -10 -12 l-109 -256 q-3 -7 -5.5 -18 q-2.5 -11 -2.5 -19 l0 -353 q0 -8 -5.5 -12.5 q-5.5 -4.5 -13.5 -3.5 l-252 31 q-8 1 -12.5 7.5 q-4.5 6.5 -3.5 14.5 l7 56 q1 8 7 12.5 q6 4.5 14 4.5 l145 -18 q8 -1 13 4 q5 5 5 13 l0 263 q0 8 2.5 18.5 q2.5 10.5 5.5 18.5 l99 231 q3 8 0 13.5 q-3 5.5 -11 4.5 l-228 -11 q-8 0 -14 6 q-6 6 -7 13 l-1 57 q-1 8 4 14 q5 6 13 6 l366 16 q8 1 13.5 -4 q5.5 -5 5.5 -13 l4 -58 l0 0 Z" /><glyph glyph-name="uni4E8B" unicode="&#x4e8b;" d="M867 235 q1 -10 -5 -16.5 q-6 -6.5 -16 -6.5 l-77 -1 q-9 0 -15.5 -7 q-6.5 -7 -6.5 -16 l0 -81 q0 -10 -6 -16 q-6 -6 -15 -6 l-210 0 q-8 0 -15 -6 q-7 -6 -8 -15 l-7 -79 q-1 -10 -8 -15.5 q-7 -5.5 -16 -4.5 l-158 12 q-10 1 -15.5 7.5 q-5.5 6.5 -4.5 15.5 l3 45 q2 8 8 14.5 q6 6.5 15 5.5 l73 -6 q9 -1 15.5 3 q6.5 4 7.5 10 q0 5 -6 9 q-6 4 -15 4 l-122 0 q-9 0 -15.5 6 q-6.5 6 -6.5 16 l0 44 q0 9 6.5 15.5 q6.5 6.5 15.5 6.5 l129 0 q9 0 16 4.5 q7 4.5 8 10.5 q0 6 -5.5 10.5 q-5.5 4.5 -14.5 4.5 l-242 -6 q-9 0 -15.5 6.5 q-6.5 6.5 -6.5 15.5 l0 22 q-1 9 5.5 15.5 q6.5 6.5 15.5 7.5 l247 4 q10 0 16.5 4 q6.5 4 6.5 9 q1 5 -5 8 q-6 3 -16 5 l-177 13 q-9 2 -15.5 8.5 q-6.5 6.5 -4.5 16.5 l3 43 q1 9 8 15 q7 6 15 5 l179 -14 q10 -1 16.5 2.5 q6.5 3.5 6.5 8.5 q2 6 -4.5 9.5 q-6.5 3.5 -15.5 3.5 l-244 0 q-9 0 -13.5 6.5 q-4.5 6.5 -1.5 15.5 l44 148 q3 10 5 16 q2 6 3 6 q1 0 1.5 6.5 q0.5 6.5 -0.5 15.5 l-2 41 q0 10 6 16.5 q6 6.5 15 8.5 l212 10 q9 0 16 7 q7 7 8 16 l1 16 q2 9 8.5 15 q6.5 6 16.5 5 l43 -4 q9 -1 15 -8 q6 -7 5 -16 l0 -3 q-1 -10 4.5 -16 q5.5 -6 14.5 -5 l175 8 q9 1 15.5 -5.5 q6.5 -6.5 7.5 -15.5 l2 -44 q2 -9 -4.5 -16 q-6.5 -7 -15.5 -7 l-187 -9 q-9 -1 -16 -3 q-7 -2 -7 -6 q-1 -3 5.5 -5 q6.5 -2 16.5 -2 l193 0 q11 0 17 -6 q6 -6 6 -17 l0 -146 q0 -10 -6 -16.5 q-6 -6.5 -17 -6.5 l-210 0 q-9 0 -16 -4.5 q-7 -4.5 -8 -11.5 q0 -7 5.5 -12 q5.5 -5 15.5 -6 l184 -14 q9 -1 15 -8 q6 -7 6 -16 l0 -35 q0 -10 6.5 -16 q6.5 -6 15.5 -6 l76 1 q8 2 15 -4.5 q7 -6.5 7 -15.5 l0 -22 ZM554 509 q-9 0 -16 -2.5 q-7 -2.5 -7 -5.5 q0 -3 6 -5 q6 -2 16 -2 l115 0 q9 0 15.5 2 q6.5 2 6.5 5 q0 3 -6.5 5.5 q-6.5 2.5 -15.5 2.5 l-114 0 ZM420 494 q10 0 16.5 2 q6.5 2 7.5 5 q0 3 -6.5 5.5 q-6.5 2.5 -15.5 2.5 l-130 0 q-9 0 -16 -2.5 q-7 -2.5 -8 -5.5 q-1 -3 4.5 -5 q5.5 -2 14.5 -2 l133 0 ZM429 597 q10 0 16.5 1 q6.5 1 6.5 4 q0 2 -6.5 3 q-6.5 1 -15.5 1 l-166 -9 q-9 0 -9 0 q0 0 9 0 l165 0 ZM535 283 q-10 1 -16 -0.5 q-6 -1.5 -7 -5.5 q0 -2 6 -4 q6 -2 16 -1 l95 1 q9 1 9 1.5 q0 0.5 -9 0.5 l-94 8 ZM637 173 q9 0 15.5 5 q6.5 5 6.5 12 q0 8 -6.5 13 q-6.5 5 -15.5 4 l-109 -2 q-11 0 -17 -5 q-6 -5 -7 -11 q0 -7 5.5 -11.5 q5.5 -4.5 14.5 -4.5 l113 0 Z" /><glyph glyph-name="uni4F60" unicode="&#x4f60;" d="M316 735 q11 4 18 -2 q7 -6 5 -16 l-64 -709 q-1 -11 -9 -18 q-8 -7 -20 -6 l-47 4 q-10 1 -17 9.5 q-7 8.5 -6 19.5 l51 563 q1 12 -6 17 q-7 5 -17 3 l-42 -13 q-11 -2 -20.5 3 q-9.5 5 -12.5 15 l-13 45 q-2 11 2.5 20.5 q4.5 9.5 16.5 11.5 l181 53 ZM865 603 q11 0 16 -7.5 q5 -7.5 1 -17.5 l-52 -137 q-3 -10 -13 -15 q-10 -5 -20 -1 l-21 8 q-10 3 -14.5 13.5 q-4.5 10.5 -1.5 19.5 l14 37 q4 10 -1 17 q-5 7 -16 7 l-357 -2 q-11 0 -15 7 q-4 7 -1 16 l88 185 q4 10 15 13.5 q11 3.5 20 -0.5 l20 -10 q10 -4 13.5 -14.5 q3.5 -10.5 -0.5 -19.5 l-37 -78 q-4 -9 0 -16 q4 -7 16 -7 l346 2 ZM648 467 q11 -1 18 -9 q7 -8 6 -19 l-37 -443 q-1 -11 -9.5 -18 q-8.5 -7 -19.5 -7 l-133 4 q-12 1 -19.5 8.5 q-7.5 7.5 -5.5 19.5 l1 47 q1 10 8.5 18 q7.5 8 18.5 7 l38 -1 q12 -1 20 6.5 q8 7.5 9 18.5 l30 348 q1 11 9 18 q8 7 20 6 l46 -4 ZM452 155 q-3 -12 -13 -16.5 q-10 -4.5 -20 -1.5 l-22 7 q-10 4 -15 13.5 q-5 9.5 -1 20.5 l49 150 q4 11 13.5 15.5 q9.5 4.5 20.5 1.5 l20 -8 q12 -3 16.5 -12 q4.5 -9 1.5 -21 l-50 -149 ZM866 92 q6 -9 3.5 -19 q-2.5 -10 -11.5 -16 l-41 -24 q-10 -6 -20 -3 q-10 3 -16 12 l-108 179 q-6 9 -3.5 19.5 q2.5 10.5 12.5 16.5 l39 24 q11 6 21 3 q10 -3 16 -12 l108 -180 Z" /><glyph glyph-name="uni5218" unicode="&#x5218;" d="M663 582 q2 -8 -3.5 -15.5 q-5.5 -7.5 -14.5 -8.5 l-527 -76 q-10 -1 -17 4 q-7 5 -8 14 l-7 44 q-1 9 5 16.5 q6 7.5 15 8.5 l232 34 q9 1 10.5 5.5 q1.5 4.5 -7.5 10.5 l-71 53 q-8 4 -9.5 13.5 q-1.5 9.5 3.5 15.5 l27 36 q6 8 14.5 9 q8.5 1 15.5 -3 l81 -60 q8 -6 10 -15 q2 -9 -4 -16 l-19 -26 q-6 -7 -3 -12 q3 -5 11 -3 l235 34 q10 1 17.5 -4.5 q7.5 -5.5 7.5 -14.5 l6 -44 ZM490 245 q-6 -7 -6 -15.5 q0 -8.5 8 -13.5 l197 -144 q7 -5 8.5 -14 q1.5 -9 -4.5 -17 l-26 -35 q-6 -7 -14.5 -9 q-8.5 -2 -16.5 4 l-206 151 q-8 5 -17 4.5 q-9 -0.5 -16 -7.5 l-180 -184 q-7 -5 -16 -5.5 q-9 -0.5 -15 5.5 l-32 31 q-6 6 -6 15.5 q0 9.5 6 16.5 l171 174 q6 7 5.5 15 q-0.5 8 -7.5 14 l-141 104 q-7 5 -8.5 14 q-1.5 9 3.5 17 l26 35 q6 7 14.5 8 q8.5 1 17.5 -3 l150 -112 q8 -4 17.5 -3.5 q9.5 0.5 14.5 7.5 l37 37 q7 5 11.5 16.5 q4.5 11.5 5.5 21.5 l10 139 q1 9 7 14.5 q6 5.5 16 4.5 l43 -2 q11 0 16.5 -7 q5.5 -7 4.5 -16 l-11 -171 q0 -10 -5.5 -21.5 q-5.5 -11.5 -12.5 -16.5 l-49 -52 ZM670 496 q0 9 6 15 q6 6 16 6 l44 0 q9 0 15.5 -6 q6.5 -6 6.5 -15 l0 -241 q0 -10 -6.5 -16 q-6.5 -6 -15.5 -6 l-44 0 q-10 0 -16 6 q-6 6 -6 16 l0 241 ZM836 760 q10 1 16.5 -5 q6.5 -6 7.5 -16 l54 -760 q1 -8 -5 -14 q-6 -6 -14 -5 l-130 12 q-10 1 -15.5 8 q-5.5 7 -4.5 16 l5 44 q1 9 8 15 q7 6 16 5 l25 -3 q9 -1 15 5 q6 6 5 15 l-46 657 q-1 9 4.5 16 q5.5 7 14.5 7 l44 3 Z" /><glyph glyph-name="uni5230" unicode="&#x5230;" d="M607 90 q12 0 19.5 -7.5 q7.5 -7.5 8.5 -18.5 l1 -57 q0 -11 -7.5 -18.5 q-7.5 -7.5 -17.5 -8.5 l-474 -12 q-10 -1 -18.5 7 q-8.5 8 -8.5 18 l-1 58 q-1 10 6.5 18 q7.5 8 19.5 10 l180 3 q12 0 18.5 8 q6.5 8 5.5 18 l-11 140 q-1 11 -10 18 q-9 7 -19 7 l-65 0 q-12 0 -19.5 7.5 q-7.5 7.5 -7.5 17.5 l-1 36 q0 10 7.5 18 q7.5 8 18.5 8 l59 1 q12 0 18.5 7.5 q6.5 7.5 5.5 19.5 l-2 31 q-1 11 -9 18 q-8 7 -20 6 l-129 -6 q-11 -1 -16.5 6 q-5.5 7 -0.5 17 l45 127 q5 10 -0.5 17 q-5.5 7 -16.5 6 l-27 -1 q-11 0 -18.5 7.5 q-7.5 7.5 -8.5 17.5 l-4 79 q-1 12 6 19.5 q7 7.5 18 8.5 l452 22 q11 0 19 -7 q8 -7 9 -18 l3 -80 q1 -11 -6 -18.5 q-7 -7.5 -19 -8.5 l-276 -13 q-11 -1 -21 -8.5 q-10 -7.5 -15 -18.5 l-13 -35 q-4 -12 1 -18 q5 -6 17 -6 l187 10 q11 1 18 7 q7 6 5 14 q-2 8 4.5 15 q6.5 7 17.5 8 l35 7 q11 2 20 -4.5 q9 -6.5 11 -16.5 l16 -84 q1 -12 -5.5 -19 q-6.5 -7 -16.5 -9 l-128 -8 q-11 0 -18 -8 q-7 -8 -6 -19 l3 -35 q1 -11 9 -18.5 q8 -7.5 19 -7.5 l37 0 q12 1 19.5 -7 q7.5 -8 7.5 -19 l1 -35 q0 -11 -7.5 -19 q-7.5 -8 -19.5 -8 l-30 -1 q-11 0 -18 -7.5 q-7 -7.5 -6 -18.5 l12 -137 q1 -10 9 -18.5 q8 -8.5 18 -6.5 l130 3 ZM736 278 q1 -11 -6.5 -19 q-7.5 -8 -18.5 -9 l-35 -1 q-11 -1 -19 5.5 q-8 6.5 -9 18.5 l-14 243 q-1 11 6.5 19 q7.5 8 17.5 9 l36 3 q11 0 18.5 -7 q7.5 -7 8.5 -19 l15 -243 ZM891 -18 q1 -12 -6 -19 q-7 -7 -19 -6 l-162 13 q-10 2 -17.5 10 q-7.5 8 -6.5 19 l7 80 q1 10 9 17.5 q8 7.5 19 6.5 l15 -3 q11 -1 18.5 6 q7.5 7 7.5 19 l-19 603 q0 12 7 20 q7 8 19 8 l79 2 q11 1 18.5 -6.5 q7.5 -7.5 8.5 -18.5 l22 -751 Z" /><glyph glyph-name="uni53EF" unicode="&#x53ef;" d="M898 726 q1 -7 -3.5 -13 q-4.5 -6 -11.5 -7 l-215 -31 q-7 -1 -8.5 -2 q-1.5 -1 3.5 -1 q6 0 9.5 -5.5 q3.5 -5.5 3.5 -13.5 l-22 -685 q-1 -7 -6 -12 q-5 -5 -12 -4 l-153 9 q-8 1 -12.5 6 q-4.5 5 -4.5 13 l4 64 q1 8 6.5 12.5 q5.5 4.5 12.5 4.5 l50 -4 q7 -1 13 4.5 q6 5.5 6 12.5 l18 570 q0 7 -4.5 11.5 q-4.5 4.5 -12.5 3.5 l-433 -64 q-8 -2 -13.5 3 q-5.5 5 -6.5 11 l-4 27 q-1 8 3.5 13.5 q4.5 5.5 11.5 7.5 l757 111 q8 1 13 -3.5 q5 -4.5 6 -11.5 l5 -27 ZM499 315 q1 -7 -2.5 -14.5 q-3.5 -7.5 -9.5 -9.5 l-239 -112 q-7 -2 -12.5 1 q-5.5 3 -6.5 10 l-52 287 q-1 7 3.5 12 q4.5 5 11.5 7 l239 7 q8 0 14.5 -5 q6.5 -5 7.5 -13 l46 -170 ZM384 339 q7 3 10.5 10 q3.5 7 0.5 14 l-9 34 q-1 7 -7.5 11.5 q-6.5 4.5 -14.5 4.5 l-69 -1 q-8 -1 -11.5 -6.5 q-3.5 -5.5 -1.5 -12.5 l12 -77 q1 -7 7 -9.5 q6 -2.5 13 0.5 l70 32 Z" /><glyph glyph-name="uni5410" unicode="&#x5410;" d="M867 41 q0 -9 -6.5 -15.5 q-6.5 -6.5 -15.5 -6.5 l-400 -14 q-10 0 -16 6 q-6 6 -6 15 l-1 36 q-1 9 -7.5 15.5 q-6.5 6.5 -15.5 5.5 l-214 -7 q-9 0 -16 6 q-7 6 -8 16 l-28 383 q0 10 3 21 q3 11 9 19 l18 23 q6 7 16 11.5 q10 4.5 20 4.5 l202 -10 q9 0 16 6 q7 6 7 15 l0 13 q1 9 8 15.5 q7 6.5 16 5.5 l107 -6 q9 -1 15.5 5.5 q6.5 6.5 5.5 15.5 l-3 71 q0 8 6.5 15 q6.5 7 15.5 7 l44 2 q9 0 16 -6 q7 -6 7 -16 l2 -78 q0 -10 7 -16.5 q7 -6.5 16 -6.5 l111 -7 q9 -1 15.5 -7.5 q6.5 -6.5 4.5 -15.5 l-2 -43 q-1 -10 -7.5 -16 q-6.5 -6 -15.5 -5 l-103 4 q-10 2 -16 -4 q-6 -6 -5 -16 l11 -359 q2 -9 8 -15.5 q6 -6.5 15 -5.5 l140 5 q9 0 15 -6.5 q6 -6.5 6 -14.5 l3 -45 ZM335 168 q10 1 16 7.5 q6 6.5 5 15.5 l-13 252 q-1 10 -7 16.5 q-6 6.5 -16 6.5 l-75 4 q-11 0 -16.5 -6 q-5.5 -6 -4.5 -14 l18 -263 q1 -9 8 -15 q7 -6 16 -6 l69 2 ZM571 98 q9 0 15.5 6.5 q6.5 6.5 6.5 15.5 l-13 368 q0 9 -6 15 q-6 6 -17 8 l-108 5 q-9 1 -15.5 -5 q-6.5 -6 -4.5 -15 l19 -381 q1 -9 7.5 -15.5 q6.5 -6.5 15.5 -5.5 l100 4 Z" /><glyph glyph-name="uni543B" unicode="&#x543b;" d="M873 664 q9 0 14.5 -7 q5.5 -7 4.5 -15 l-71 -657 q-1 -9 -8 -14.5 q-7 -5.5 -16 -4.5 l-198 23 q-10 1 -16 8 q-6 7 -5 16 l6 44 q1 9 8 14 q7 5 16 4 l111 -12 q9 -1 16 4.5 q7 5.5 8 14.5 l32 300 q1 8 -2.5 9.5 q-3.5 1.5 -8.5 -4.5 l-316 -368 q-5 -7 -14.5 -8.5 q-9.5 -1.5 -16.5 5.5 l-42 37 q-8 6 -8.5 14.5 q-0.5 8.5 4.5 15.5 l340 397 q5 7 14.5 7.5 q9.5 0.5 16.5 -5.5 l24 -22 q7 -6 12.5 -3.5 q5.5 2.5 6.5 11.5 l10 86 q1 10 -5 16 q-6 6 -15 6 l-63 1 q-9 0 -12 -5 q-3 -5 3 -13 l15 -22 q4 -8 2.5 -16.5 q-1.5 -8.5 -9.5 -14.5 l-211 -140 q-8 -6 -16.5 -4 q-8.5 2 -13.5 10 l-24 36 q-6 8 -4 17 q2 9 10 13 l190 128 q7 6 6 9.5 q-1 3.5 -10 3.5 l-115 1 q-9 0 -20.5 -3.5 q-11.5 -3.5 -18.5 -9.5 l-44 -33 q-8 -6 -16.5 -5 q-8.5 1 -14.5 9 l-26 35 q-6 7 -5 16 q1 9 8 15 l192 145 q7 6 16 4.5 q9 -1.5 14 -8.5 l28 -35 q6 -7 4.5 -15.5 q-1.5 -8.5 -9.5 -14.5 q-7 -6 -5 -9.5 q2 -3.5 11 -3.5 l236 -3 ZM352 707 q7 5 12.5 1.5 q5.5 -3.5 5.5 -12.5 l-26 -613 q-1 -9 -7.5 -15.5 q-6.5 -6.5 -15.5 -6.5 l-172 0 q-8 0 -14.5 6.5 q-6.5 6.5 -8.5 15.5 l-18 467 q0 9 5 18 q5 9 13 14 l226 125 ZM275 543 q1 9 -5 12.5 q-6 3.5 -12 -1.5 l-42 -23 q-7 -3 -12.5 -13 q-5.5 -10 -5.5 -19 l14 -329 q1 -9 7 -15 q6 -6 16 -6 l2 0 q9 0 15.5 6 q6.5 6 7.5 15 l15 373 Z" /><glyph glyph-name="uni544A" unicode="&#x544a;" d="M892 384 q0 -9 -6 -16 q-6 -7 -17 -7 l-729 -28 q-10 0 -17 6.5 q-7 6.5 -8 15.5 l-2 63 q-2 10 5 16.5 q7 6.5 18 6.5 l279 11 q10 1 17.5 7.5 q7.5 6.5 7.5 15.5 l2 10 q0 9 -6.5 15.5 q-6.5 6.5 -16.5 5.5 l-151 -8 q-6 -1 -10 -1 q-4 0 -7 0 q-5 0 -7 0 q0 0 -5.5 -5 q-5.5 -5 -10.5 -12 l-8 -9 q-7 -7 -17 -7.5 q-10 -0.5 -18 5.5 l-68 54 q-8 7 -8.5 15.5 q-0.5 8.5 6.5 16.5 l125 132 q6 9 16.5 9.5 q10.5 0.5 17.5 -6.5 l67 -54 q9 -6 10.5 -14 q1.5 -8 -3.5 -13 q-5 -5 -1 -8.5 q4 -3.5 14 -2.5 l62 3 q10 1 17.5 7.5 q7.5 6.5 9.5 16.5 l5 112 q1 10 8 16 q7 6 18 6 l73 -4 q9 0 16 -6.5 q7 -6.5 7 -17.5 l-6 -99 q-1 -10 6 -16 q7 -6 17 -4 l134 6 q10 2 17 -4.5 q7 -6.5 8 -15.5 l4 -50 q1 -9 -6 -16 q-7 -7 -17 -8 l-145 -8 q-9 -1 -16.5 -8 q-7.5 -7 -9.5 -16 l-1 -12 q0 -10 7 -16.5 q7 -6.5 16 -4.5 l280 10 q9 0 17 -6.5 q8 -6.5 8 -15.5 l2 -63 ZM772 336 q9 0 15 -6 q6 -6 4 -15 l-52 -334 q-2 -9 -10 -15 q-8 -6 -18 -6 l-420 0 q-10 0 -19.5 6 q-9.5 6 -11.5 15 l-90 297 q-3 9 2 15.5 q5 6.5 15 7.5 l585 35 ZM644 188 q1 10 -4.5 16 q-5.5 6 -16.5 5 l-272 -16 q-11 0 -15.5 -7 q-4.5 -7 -2.5 -16 l22 -72 q4 -10 12.5 -15.5 q8.5 -5.5 18.5 -5.5 l217 -1 q9 0 17 6 q8 6 10 17 l14 89 Z" /><glyph glyph-name="uni556A" unicode="&#x556a;" d="M331 577 q9 0 14.5 -6 q5.5 -6 5.5 -15 l-27 -370 q-1 -9 -7.5 -15 q-6.5 -6 -16.5 -6 l-152 2 q-9 0 -15.5 6 q-6.5 6 -6.5 16 l5 369 q0 9 6 15.5 q6 6.5 15 6.5 l179 -3 ZM256 468 q1 10 -4 16.5 q-5 6.5 -14 6.5 q-8 0 -14.5 -6.5 q-6.5 -6.5 -6.5 -15.5 l-2 -194 q0 -9 4 -15.5 q4 -6.5 8 -6.5 q6 0 10 6.5 q4 6.5 5 15.5 l14 193 ZM875 321 q0 -9 -5.5 -16 q-5.5 -7 -15.5 -8 q-8 -1 -14.5 -7.5 q-6.5 -6.5 -7.5 -16.5 l-2 -271 q0 -8 -6.5 -14.5 q-6.5 -6.5 -15.5 -6.5 l-214 2 q-9 1 -15.5 7.5 q-6.5 6.5 -6.5 15.5 l4 286 q0 11 -5.5 13.5 q-5.5 2.5 -13.5 -1.5 l-24 -15 q-8 -5 -13 -14.5 q-5 -9.5 -6 -20.5 l-10 -248 q0 -9 -6.5 -15 q-6.5 -6 -16.5 -5 l-134 16 q-9 2 -15 8.5 q-6 6.5 -5 16.5 l5 43 q1 8 8 14 q7 6 17 5 l40 -5 q10 -1 16 4.5 q6 5.5 7 15.5 l4 94 q0 10 -5 13 q-5 3 -14 -2 l-8 -5 q-6 -5 -15.5 -3.5 q-9.5 1.5 -13.5 10.5 l-10 14 q-4 9 -2.5 17.5 q1.5 8.5 9.5 14.5 l44 26 q8 5 13 14.5 q5 9.5 6 18.5 l4 98 q0 9 -6.5 15.5 q-6.5 6.5 -14.5 7.5 l-24 0 q-9 1 -15 7.5 q-6 6.5 -6 15.5 l2 27 q0 9 6 15 q6 6 15 5 l25 0 q9 -1 15 5.5 q6 6.5 8 16.5 l5 160 q0 9 7 15.5 q7 6.5 16 6.5 l44 -3 q9 0 15.5 -6 q6.5 -6 5.5 -17 l-6 -159 q0 -10 6.5 -16 q6.5 -6 14.5 -7 l3 0 q9 0 15.5 -7 q6.5 -7 6.5 -16 l-1 -27 q-1 -9 -7.5 -15 q-6.5 -6 -15.5 -6 l-4 0 q-9 0 -15.5 -6 q-6.5 -6 -7.5 -15 l-1 -38 q-1 -10 4 -13 q5 -3 12 1 q7 5 15.5 2.5 q8.5 -2.5 13.5 -10.5 l1 -2 q5 -8 8.5 -7.5 q3.5 0.5 4.5 10.5 l2 225 q0 9 0 15 q0 6 -1 6 q0 2 4.5 6 q4.5 4 11.5 10 l137 118 q7 7 16 5.5 q9 -1.5 15 -8.5 l17 -19 q6 -7 5.5 -16 q-0.5 -9 -7.5 -15 l-63 -54 q-7 -6 -5.5 -10 q1.5 -4 10.5 -3 l96 8 q9 1 15 -5 q6 -6 6 -15 l-2 -196 q-1 -9 4.5 -15.5 q5.5 -6.5 12.5 -5.5 q8 0 13 -5.5 q5 -5.5 6 -14.5 l5 -44 ZM765 526 q0 9 -6 14.5 q-6 5.5 -15 4.5 l-74 -6 q-9 -1 -15.5 -7 q-6.5 -6 -6.5 -17 l-4 -440 q0 -9 6 -15.5 q6 -6.5 15 -6.5 l73 -1 q9 0 15.5 6 q6.5 6 6.5 16 l2 192 q0 10 -6 16 q-6 6 -16 4 l-52 -4 q-9 -1 -16 4.5 q-7 5.5 -8 14.5 l-4 44 q-2 9 4.5 16 q6.5 7 15.5 8 l61 6 q9 1 15.5 8 q6.5 7 6.5 16 l2 127 Z" /><glyph glyph-name="uni559C" unicode="&#x559c;" d="M734 165 q11 0 15 -6.5 q4 -6.5 1 -17.5 l-67 -141 q-5 -9 -15.5 -17.5 q-10.5 -8.5 -21.5 -8.5 l-321 -13 q-11 -1 -19 6 q-8 7 -9 19 l-10 144 q-1 11 6 19 q7 8 19 8 l422 8 ZM645 75 q5 9 1 16 q-4 7 -16 7 l-248 -6 q-12 0 -19 -7.5 q-7 -7.5 -5 -19.5 l1 -11 q0 -11 8 -18 q8 -7 19 -6 l218 8 q10 1 21 8.5 q11 7.5 15 16.5 l5 12 ZM160 628 q-11 0 -19 6.5 q-8 6.5 -9 18.5 l0 8 q-1 12 6.5 20 q7.5 8 18.5 8 l241 11 q11 1 18.5 9 q7.5 8 6.5 19 l0 4 q0 11 8 18.5 q8 7.5 19 8.5 l61 1 q11 0 19 -7.5 q8 -7.5 8 -19.5 l0 0 q0 -11 8 -18 q8 -7 19 -7 l217 11 q11 0 19.5 -7 q8.5 -7 9.5 -19 l0 -8 q0 -11 -7 -19 q-7 -8 -19 -8 l-219 -12 q-11 0 -19 -8 q-8 -8 -7 -20 l0 -2 q0 -11 8.5 -18.5 q8.5 -7.5 18.5 -6.5 l151 7 q10 1 18 -6 q8 -7 9 -18 l0 -10 q1 -11 -6.5 -18.5 q-7.5 -7.5 -17.5 -8.5 l-153 -8 q-10 0 -18 -5.5 q-8 -5.5 -7 -11.5 q0 -7 7.5 -12 q7.5 -5 18.5 -5 l98 3 q11 1 18 -6.5 q7 -7.5 6 -19.5 l-10 -101 q-1 -11 -9.5 -18.5 q-8.5 -7.5 -19.5 -7.5 l-308 -6 q-12 0 -19 7.5 q-7 7.5 -7 17.5 l2 100 q0 12 8 19.5 q8 7.5 19 8.5 l55 1 q11 0 18.5 4 q7.5 4 7.5 11 q0 6 -7.5 10 q-7.5 4 -19.5 3 l-160 -7 q-11 -1 -19 5.5 q-8 6.5 -8 18.5 l-1 9 q0 12 6.5 19.5 q6.5 7.5 18.5 8.5 l162 8 q12 1 19.5 8.5 q7.5 7.5 7.5 18.5 l-2 4 q0 11 -7.5 18 q-7.5 7 -18.5 7 l-239 -11 ZM399 440 q-12 -1 -20 -8 q-8 -7 -8 -16 q0 -10 7.5 -16.5 q7.5 -6.5 19.5 -6.5 l206 4 q11 0 19 7 q8 7 9 17 q2 10 -5 17 q-7 7 -19 7 l-209 -5 ZM868 219 q0 -11 -7.5 -18.5 q-7.5 -7.5 -17.5 -8.5 l-673 -30 q-11 -1 -18.5 6.5 q-7.5 7.5 -8.5 18.5 l0 8 q0 12 6.5 20 q6.5 8 18.5 8 l148 7 q11 0 13 5.5 q2 5.5 -6 13.5 l-8 8 q-8 8 -8 18.5 q0 10.5 8 18.5 l18 20 q8 8 18.5 8 q10.5 0 18.5 -8 l38 -37 q8 -8 10 -16.5 q2 -8.5 -3 -14.5 q-5 -5 -0.5 -8.5 q4.5 -3.5 15.5 -3.5 l93 5 q12 1 18 3 q6 2 5 4 q-1 2 4 8 q5 6 15 13 l84 57 q9 6 19 3.5 q10 -2.5 17 -11.5 l15 -22 q6 -9 4.5 -19 q-1.5 -10 -9.5 -15 q-9 -6 -7 -9.5 q2 -3.5 13 -3.5 l138 7 q12 0 20 -7.5 q8 -7.5 8 -17.5 l1 -10 Z" /><glyph glyph-name="uni58EB" unicode="&#x58eb;" d="M877 519 q11 0 17 -7 q6 -7 6 -16 l0 -43 q0 -10 -6 -16 q-6 -6 -17 -6 l-323 0 q-10 0 -18 -6.5 q-8 -6.5 -10 -14.5 l-76 -250 q-3 -8 2 -15.5 q5 -7.5 14 -8.5 l287 -41 q9 -1 14.5 -8 q5.5 -7 4.5 -16 l-6 -44 q-1 -9 -8.5 -14 q-7.5 -5 -16.5 -4 l-594 85 q-10 1 -15.5 8.5 q-5.5 7.5 -3.5 16.5 l7 43 q1 10 8.5 15 q7.5 5 15.5 4 l174 -25 q10 -1 18 4 q8 5 11 13 l72 237 q3 8 -2 14.5 q-5 6.5 -13 6.5 l-297 0 q-10 0 -16 6 q-6 6 -6 16 l0 43 q0 9 6 16 q6 7 16 7 l323 0 q9 0 17 6 q8 6 11 15 l47 155 q3 9 11 13 q8 4 16 2 l43 -14 q8 -2 12.5 -10 q4.5 -8 2.5 -16 l-40 -130 q-3 -9 2 -15 q5 -6 14 -6 l296 0 l0 0 Z" /><glyph glyph-name="uni58F0" unicode="&#x58f0;" d="M218 685 q0 10 7 16 q7 6 15 6 l251 -3 q10 -1 15 5 q5 6 2 14 q-1 10 3.5 17.5 q4.5 7.5 13.5 8.5 l44 10 q8 2 16 -3 q8 -5 11 -14 l3 -19 q2 -9 9.5 -15 q7.5 -6 17.5 -6 l219 -4 q9 0 15.5 -6.5 q6.5 -6.5 6.5 -16.5 l-1 -44 q0 -9 -6.5 -15 q-6.5 -6 -15.5 -5 l-199 2 q-9 0 -15 -3.5 q-6 -3.5 -4 -7.5 q1 -4 8.5 -7.5 q7.5 -3.5 15.5 -3.5 l117 4 q9 1 16 -5.5 q7 -6.5 7 -15.5 l1 -45 q0 -9 -5.5 -15.5 q-5.5 -6.5 -16.5 -6.5 l-432 -12 q-9 0 -15.5 5.5 q-6.5 5.5 -7.5 15.5 l-1 44 q0 9 6 15.5 q6 6.5 16 6.5 l182 6 q8 0 14 4 q6 4 5 10 q-1 5 -8 9 q-7 4 -17 4 l-272 5 q-8 0 -15 6.5 q-7 6.5 -6 15.5 l0 43 ZM189 -38 q-9 -4 -17.5 -2 q-8.5 2 -12.5 10 l-23 38 q-5 8 -2.5 16.5 q2.5 8.5 9.5 13.5 l131 78 q8 5 13 14.5 q5 9.5 4 17.5 l-23 301 q-1 9 5 15 q6 6 16 6 l430 -4 q9 0 15.5 1 q6.5 1 6.5 3 q0 3 6 4.5 q6 1.5 17 0.5 l43 0 q9 0 15.5 -7 q6.5 -7 5.5 -16 l-5 -274 q0 -9 -6 -15.5 q-6 -6.5 -16 -6.5 l-400 0 q-10 0 -16 -6 q-6 -6 -4 -14 l2 -35 q1 -8 -4 -18 q-5 -10 -13 -14 l-177 -107 ZM739 355 q0 10 -6 16.5 q-6 6.5 -17 6.5 l-104 2 q-9 0 -13.5 -6.5 q-4.5 -6.5 -1.5 -14.5 l33 -93 q2 -9 11 -15 q9 -6 18 -6 l56 0 q9 0 15.5 6.5 q6.5 6.5 6.5 15.5 l2 88 ZM383 382 q-8 0 -14.5 -6.5 q-6.5 -6.5 -5.5 -16.5 l7 -92 q1 -9 7.5 -15.5 q6.5 -6.5 16.5 -6.5 l128 0 q9 0 13 6 q4 6 2 15 l-24 68 q-4 9 0 17 q4 8 14 10 l28 12 q10 2 10 4.5 q0 2.5 -11 2.5 l-171 2 Z" /><glyph glyph-name="uni5973" unicode="&#x5973;" d="M851 549 q0 -9 -6.5 -16 q-6.5 -7 -15.5 -7 l-318 -4 q-9 0 -20 -4.5 q-11 -4.5 -17 -11.5 l-111 -119 q-6 -6 -5 -14 q1 -8 10 -12 l103 -58 q8 -4 18 -2 q10 2 14 9 l120 161 q6 8 15 9 q9 1 16 -4 l49 -37 q8 -6 9.5 -14.5 q1.5 -8.5 -4.5 -16.5 l-112 -150 q-5 -7 -3 -15.5 q2 -8.5 9 -12.5 l203 -112 q8 -5 10 -13.5 q2 -8.5 -2 -16.5 l-21 -38 q-5 -8 -13.5 -10 q-8.5 -2 -16.5 1 l-213 118 q-7 5 -16.5 2.5 q-9.5 -2.5 -15.5 -8.5 l-118 -159 q-6 -7 -14.5 -8.5 q-8.5 -1.5 -16.5 3.5 l-50 37 q-7 6 -8 14.5 q-1 8.5 3 16.5 l111 147 q6 7 4 15.5 q-2 8.5 -10 12.5 l-191 107 q-8 4 -9.5 11.5 q-1.5 7.5 5.5 14.5 l130 139 q5 7 3.5 11 q-1.5 4 -10.5 4 l-174 -2 q-9 0 -15.5 6.5 q-6.5 6.5 -6.5 15.5 l-1 26 q0 10 6.5 16.5 q6.5 6.5 15.5 6.5 l240 3 q11 0 21 5 q10 5 17 12 l111 118 q5 7 14.5 7 q9.5 0 16.5 -5 l31 -31 q7 -6 7.5 -15.5 q0.5 -9.5 -6.5 -16.5 l-52 -56 q-7 -7 -4.5 -11.5 q2.5 -4.5 11.5 -4.5 l250 3 q9 2 16 -4.5 q7 -6.5 7 -15.5 l0 -27 Z" /><glyph glyph-name="uni5B50" unicode="&#x5b50;" d="M196 330 q-7 -1 -12.5 3.5 q-5.5 4.5 -6.5 12.5 l-4 52 q-1 8 3.5 13 q4.5 5 12.5 6 l287 24 q7 2 15 6 q8 4 12 11 l93 138 q4 6 1.5 10.5 q-2.5 4.5 -9.5 4.5 l-292 -18 q-8 0 -13 4.5 q-5 4.5 -6 13.5 l-4 51 q0 8 5.5 13.5 q5.5 5.5 11.5 6.5 l470 25 q8 1 10 -3 q2 -4 -2 -11 l-153 -226 q-5 -6 -2.5 -10 q2.5 -4 10.5 -3 l182 15 q6 1 12 -3.5 q6 -4.5 6 -12.5 l5 -53 q1 -7 -4 -12.5 q-5 -5.5 -13 -5.5 l-236 -21 q-9 0 -12 -6 q-3 -6 -3 -12 l57 -280 q1 -6 -3 -11.5 q-4 -5.5 -11 -6.5 l-218 -32 q-7 0 -13 4 q-6 4 -7 10 l-8 52 q-1 7 3.5 13.5 q4.5 6.5 11.5 7.5 l127 17 q7 1 11 7.5 q4 6.5 2 12.5 l-40 199 q-1 7 -7.5 11.5 q-6.5 4.5 -13.5 3.5 l-255 -21 l0 0 Z" /><glyph glyph-name="uni5B9D" unicode="&#x5b9d;" d="M199 462 q0 -9 -6.5 -13.5 q-6.5 -4.5 -15.5 -2.5 l-43 10 q-10 2 -15 4 q-3 1 -7 1 q0 0 0.5 6.5 q0.5 6.5 0.5 15.5 l-1 137 q0 9 -0.5 21.5 q-0.5 12.5 -1.5 21.5 l0 5 q0 10 6 16 q6 6 15 5 l264 -19 q9 0 11.5 5 q2.5 5 -4.5 11 l-9 11 q-6 7 -5.5 15.5 q0.5 8.5 7.5 15.5 l34 29 q5 5 14.5 4.5 q9.5 -0.5 14.5 -7.5 l59 -65 q6 -7 9 -13.5 q3 -6.5 0 -8.5 q-3 -2 1.5 -3.5 q4.5 -1.5 13.5 -2.5 l322 -23 q9 0 15.5 -7 q6.5 -7 6.5 -16 l0 -113 q0 -9 -6.5 -15 q-6.5 -6 -15.5 -6 l-43 0 q-10 0 -16.5 6 q-6.5 6 -6.5 15 l0 30 q0 11 -6 17 q-6 6 -16 8 l-552 37 q-9 2 -15 -4 q-6 -6 -7 -16 l-2 -112 ZM475 239 q1 -8 -5 -15.5 q-6 -7.5 -15 -8.5 l-193 -22 q-9 -1 -16 4.5 q-7 5.5 -8 14.5 l-6 43 q-1 9 4.5 16.5 q5.5 7.5 14.5 7.5 l194 23 q9 2 16 -4 q7 -6 8 -15 l6 -44 ZM562 72 q-1 -9 5 -15 q6 -6 16 -6 l286 3 q9 0 15.5 -6.5 q6.5 -6.5 6.5 -15.5 l0 -44 q0 -10 -6 -15.5 q-6 -5.5 -16 -7.5 l-708 -6 q-11 0 -17 6 q-6 6 -6 15 l0 44 q0 10 6 16.5 q6 6.5 15 6.5 l291 2 q10 0 16.5 7 q6.5 7 8.5 15 l9 169 q1 11 1 23.5 q0 12.5 0 20.5 l0 107 q0 8 -6.5 13.5 q-6.5 5.5 -15.5 4.5 l-146 -18 q-8 -1 -15.5 4.5 q-7.5 5.5 -8.5 14.5 l-6 44 q-1 9 4.5 16 q5.5 7 15.5 8 l408 52 q8 1 15.5 -4.5 q7.5 -5.5 8.5 -13.5 l5 -44 q1 -9 -4.5 -16 q-5.5 -7 -14.5 -8 l-130 -17 q-9 -2 -15.5 -9.5 q-6.5 -7.5 -6.5 -16.5 l0 -68 q0 -9 6.5 -14.5 q6.5 -5.5 15.5 -4.5 l153 19 q9 2 16 -4 q7 -6 8 -15 l6 -44 q1 -9 -4.5 -16 q-5.5 -7 -14.5 -8 l-166 -21 q-9 -1 -16 -8.5 q-7 -7.5 -7 -16.5 l-8 -128 ZM625 144 q-8 4 -10 13 q-2 9 2 17 l21 38 q4 8 13 10.5 q9 2.5 17 -1.5 l109 -60 q8 -5 11 -13.5 q3 -8.5 -2 -16.5 l-20 -38 q-5 -7 -14 -10 q-9 -3 -18 2 l-109 59 Z" /><glyph glyph-name="uni5C31" unicode="&#x5c31;" d="M892 31 q2 -11 -5 -18.5 q-7 -7.5 -19 -7.5 l-147 -1 q-11 0 -19 7 q-8 7 -8 19 l-20 286 q-1 12 -3 12 q-2 0 -4 -11 l-51 -253 q-2 -10 -11 -15.5 q-9 -5.5 -20 -3.5 l-34 7 q-12 2 -17.5 10.5 q-5.5 8.5 -3.5 20.5 l7 34 q2 12 -2.5 15 q-4.5 3 -13.5 -3 l-20 -14 q-9 -6 -20 -3.5 q-11 2.5 -16 11.5 l-51 75 q-7 8 -4.5 19 q2.5 11 11.5 17 l30 20 q8 6 19 3.5 q11 -2.5 17 -11.5 l43 -64 q7 -9 13 -8 q6 1 8 11 l59 291 q2 12 -4.5 20.5 q-6.5 8.5 -16.5 9.5 l-21 4 q-11 2 -17.5 10.5 q-6.5 8.5 -4.5 20.5 l5 34 q1 10 10 16.5 q9 6.5 20 5.5 l25 -5 q12 -1 21 5.5 q9 6.5 11 16.5 l14 71 q2 11 11 17 q9 6 20 4 l35 -7 q10 -2 16.5 -11 q6.5 -9 3.5 -20 l-13 -66 q-3 -12 3.5 -20.5 q6.5 -8.5 16.5 -9.5 l49 -7 q11 -3 13 1 q2 4 -7 11 l-46 41 q-8 7 -9 17.5 q-1 10.5 7 18.5 l23 27 q7 8 18 9 q11 1 19 -6 l71 -62 q8 -8 8.5 -18.5 q0.5 -10.5 -5.5 -18.5 l-10 -11 q-8 -8 -8 -14.5 q0 -6.5 7 -7.5 q7 -1 11 -9 q4 -8 2 -20 l-5 -34 q-2 -12 -10.5 -18 q-8.5 -6 -19.5 -4 l-125 18 q-10 3 -19 0 q-9 -3 -10 -8 q-1 -5 6 -8 q7 -3 18 -3 l3 1 q11 0 19 -7 q8 -7 9 -18 l21 -325 q1 -10 5 -18 q4 -8 9 -8 q3 0 6 8 q3 8 2 18 l-8 100 q-1 12 6.5 20 q7.5 8 17.5 9 l36 2 q10 2 18 -5 q8 -7 9 -19 l16 -193 ZM133 630 q-1 11 6 20 q7 9 19 10 l105 11 q12 1 19 3 q7 2 6 3 q-2 3 4 8 q6 5 16 11 l30 17 q11 6 20.5 3.5 q9.5 -2.5 15.5 -11.5 q4 -9 15.5 -14.5 q11.5 -5.5 22.5 -3.5 l118 12 q12 1 20 -5.5 q8 -6.5 9 -17.5 l5 -35 q1 -11 -6 -19.5 q-7 -8.5 -19 -9.5 l-372 -40 q-12 -2 -20 5 q-8 7 -9 19 l-5 34 ZM439 357 q0 2 -7.5 3.5 q-7.5 1.5 -18.5 1.5 l-138 4 q-12 0 -20 -4 q-8 -4 -8 -10 q-1 -6 -8.5 -9.5 q-7.5 -3.5 -18.5 -2.5 l-35 3 q-11 1 -18 8.5 q-7 7.5 -7 18.5 l11 168 q2 11 10.5 19 q8.5 8 18.5 9 l299 10 q11 0 19 -7 q8 -7 8 -18 l1 -173 q0 -10 -7.5 -18 q-7.5 -8 -18.5 -8 l-35 0 q-12 0 -19.5 1 q-7.5 1 -7.5 4 ZM412 451 q11 0 18.5 4.5 q7.5 4.5 7.5 12.5 q0 7 -7.5 12 q-7.5 5 -18.5 5 l-129 -5 q-12 0 -20 -4 q-8 -4 -8 -9 q-1 -6 6.5 -10 q7.5 -4 19.5 -4 l131 -2 ZM350 329 q11 0 19 -7.5 q8 -7.5 8 -18.5 l11 -256 q0 -10 -7.5 -17.5 q-7.5 -7.5 -19.5 -7.5 l-60 3 q-11 2 -18.5 9 q-7.5 7 -6.5 19 l1 34 q1 12 4 19.5 q3 7.5 7 6.5 q3 0 5.5 8 q2.5 8 2.5 18 l-7 161 q0 11 7.5 19 q7.5 8 17.5 8 l36 2 ZM262 231 q8 -7 10 -18 q2 -11 -5 -19 l-84 -108 q-7 -8 -18 -9.5 q-11 -1.5 -19 5.5 l-27 20 q-10 7 -11 18 q-1 11 6 19 l84 109 q7 9 17 10 q10 1 20 -5 l27 -22 Z" /><glyph glyph-name="uni5E78" unicode="&#x5e78;" d="M213 494 q-10 0 -16.5 6.5 q-6.5 6.5 -6.5 15.5 l0 26 q0 10 6.5 16 q6.5 6 16.5 6 l574 0 q9 0 15.5 -6 q6.5 -6 6.5 -16 l0 -26 q0 -9 -6.5 -15.5 q-6.5 -6.5 -15.5 -6.5 l-574 0 ZM367 636 q-9 0 -15.5 6 q-6.5 6 -6.5 15 l0 27 q0 9 6.5 16 q6.5 7 15.5 7 l75 0 q4 0 8.5 3 q4.5 3 7.5 7 q3 4 5 8 q2 4 2 7 q0 5 6.5 8.5 q6.5 3.5 15.5 2.5 l26 0 q9 0 15.5 -9.5 q6.5 -9.5 6.5 -15.5 q0 -4 6.5 -7.5 q6.5 -3.5 15.5 -3.5 l76 0 q9 0 15.5 -7 q6.5 -7 6.5 -16 l0 -27 q0 -9 -6.5 -15 q-6.5 -6 -15.5 -6 l-76 0 q-5 0 -9 -6 q-4 -6 -7 -14 q-3 -8 -4.5 -15.5 q-1.5 -7.5 -1.5 -9.5 q0 -5 -6.5 -9 q-6.5 -4 -15.5 -4 l-26 0 q-9 0 -15.5 3.5 q-6.5 3.5 -6.5 9.5 l0 23 q0 9 -7 15.5 q-7 6.5 -16 6.5 l-75 0 ZM411 417 q8 -4 11 -13.5 q3 -9.5 -2 -17.5 l-13 -23 q-4 -8 -12.5 -10.5 q-8.5 -2.5 -17.5 2.5 l-77 41 q-6 5 -9 13.5 q-3 8.5 1 16.5 l13 23 q5 8 13.5 11 q8.5 3 16.5 -1 l76 -42 ZM710 462 q9 3 17 0 q8 -3 13 -12 l11 -24 q4 -7 0.5 -16 q-3.5 -9 -11.5 -12 l-103 -48 q-8 -3 -16.5 0.5 q-8.5 3.5 -11.5 11.5 l-12 24 q-3 8 0.5 16.5 q3.5 8.5 11.5 12.5 l101 47 ZM856 279 q0 -9 -6.5 -15.5 q-6.5 -6.5 -15.5 -6.5 l-667 -11 q-10 0 -16.5 6 q-6.5 6 -6.5 16 l0 26 q0 9 6 15.5 q6 6.5 16 7.5 l667 10 q9 0 15.5 -6 q6.5 -6 6.5 -15 l1 -27 ZM717 174 q10 0 16 -6 q6 -6 6 -15 l0 -27 q0 -9 -6 -15.5 q-6 -6.5 -16 -6.5 l-160 0 q-9 0 -15.5 -6 q-6.5 -6 -6.5 -16 l0 -85 q0 -9 -6.5 -15 q-6.5 -6 -15.5 -6 l-26 0 q-9 0 -15.5 6 q-6.5 6 -6.5 15 l0 85 q0 10 -6.5 16 q-6.5 6 -16.5 6 l-160 0 q-9 0 -15.5 6.5 q-6.5 6.5 -6.5 15.5 l0 27 q0 9 6.5 15 q6.5 6 15.5 6 l160 0 q10 0 16.5 6.5 q6.5 6.5 6.5 15.5 l0 23 q0 10 6.5 16 q6.5 6 15.5 6 l26 0 q9 0 15.5 -6 q6.5 -6 6.5 -16 l0 -23 q0 -9 6.5 -15.5 q6.5 -6.5 15.5 -6.5 l160 0 Z" /><glyph glyph-name="uni5FC3" unicode="&#x5fc3;" d="M238 596 q10 -2 14.5 -9.5 q4.5 -7.5 0.5 -16.5 l-86 -318 q-3 -8 -10.5 -13 q-7.5 -5 -16.5 -2 l-26 7 q-8 3 -12.5 11 q-4.5 8 -2.5 17 l88 316 q2 9 10 14 q8 5 16 2 l25 -8 ZM885 212 q9 -2 13 -10 q4 -8 2 -16 l-27 -82 q-2 -9 -10.5 -14 q-8.5 -5 -17.5 -5 l-562 47 q-9 1 -15.5 7 q-6.5 6 -6.5 16 l0 310 q0 8 6.5 15 q6.5 7 15.5 7 l44 0 q9 0 16 -7 q7 -7 7 -15 l0 -230 q0 -9 6 -16 q6 -7 16 -8 l409 -32 q11 -1 19 4 q8 5 10 14 l6 14 q2 9 10 13 q8 4 17 2 l42 -14 ZM500 477 q8 7 16.5 5.5 q8.5 -1.5 14.5 -9.5 l87 -111 q6 -8 4.5 -17 q-1.5 -9 -7.5 -14 l-21 -16 q-7 -7 -16 -6 q-9 1 -14 9 l-89 112 q-5 8 -4 16.5 q1 8.5 8 14.5 l21 16 ZM733 632 q8 5 16.5 2.5 q8.5 -2.5 13.5 -10.5 l114 -191 q4 -8 2 -17 q-2 -9 -10 -14 l-38 -22 q-7 -3 -16.5 -1.5 q-9.5 1.5 -13.5 9.5 l-114 191 q-3 8 -1.5 17 q1.5 9 9.5 14 l38 22 Z" /><glyph glyph-name="uni5FC6" unicode="&#x5fc6;" d="M187 328 q-2 -10 -10.5 -14 q-8.5 -4 -16.5 0 l-42 14 q-8 2 -12 10.5 q-4 8.5 -1 16.5 l45 135 q4 8 12 12 q8 4 17 2 l13 -5 q9 -2 14.5 2 q5.5 4 5.5 13 l6 187 q1 8 7.5 15 q6.5 7 15.5 6 l68 -2 q9 0 15.5 -6.5 q6.5 -6.5 6.5 -15.5 l-4 -108 q0 -9 6 -14.5 q6 -5.5 15 -2.5 l28 5 q8 3 16 -2.5 q8 -5.5 9 -13.5 l38 -175 q2 -9 -3 -16.5 q-5 -7.5 -13 -8.5 l-43 -10 q-9 -1 -16.5 3.5 q-7.5 4.5 -9.5 13.5 l-24 112 q-3 9 -4 9 q-1 0 -1 -9 l-14 -462 q0 -9 -6 -15 q-6 -6 -17 -6 l-68 2 q-9 0 -15 7 q-6 7 -5 15 l9 348 q1 9 -1 9.5 q-2 0.5 -5 -8.5 l-16 -43 ZM809 218 q0 10 6.5 16 q6.5 6 15.5 6 l44 0 q8 0 15 -6 q7 -6 7 -16 l0 -166 q0 -10 -6.5 -15.5 q-6.5 -5.5 -15.5 -4.5 l-479 46 q-9 1 -12.5 7 q-3.5 6 1.5 14 l247 445 q5 8 1.5 14 q-3.5 6 -12.5 8 l-202 19 q-10 1 -15.5 8 q-5.5 7 -4.5 16 l4 44 q1 8 8 14.5 q7 6.5 16 5.5 l334 -34 q9 -1 12.5 -7.5 q3.5 -6.5 -1.5 -14.5 l-247 -444 q-4 -8 -0.5 -14 q3.5 -6 12.5 -7 l250 -23 q10 -2 16 4 q6 6 6 15 l0 70 Z" /><glyph glyph-name="uni60C5" unicode="&#x60c5;" d="M204 373 q-2 -9 -9.5 -14 q-7.5 -5 -16.5 -4 l-43 6 q-10 1 -15 7.5 q-5 6.5 -4 17.5 l27 188 q1 10 8.5 15 q7.5 5 15.5 4 l43 -6 q10 -1 15.5 -8.5 q5.5 -7.5 4.5 -15.5 l-26 -190 ZM883 420 q1 -9 -5 -15.5 q-6 -6.5 -15 -7.5 l-357 -24 q-9 0 -9 -1.5 q0 -1.5 9 -2.5 l279 -43 q11 -1 17 -8.5 q6 -7.5 8 -16.5 l26 -265 q1 -9 -4.5 -16 q-5.5 -7 -14.5 -8 l-44 -5 q-11 -1 -17 5 q-6 6 -7 15 l-20 197 q-1 9 -8 16.5 q-7 7.5 -16 8.5 l-124 20 q-9 1 -16 -3 q-7 -4 -8 -12 q-2 -7 4 -14 q6 -7 14 -8 l79 -15 q10 -3 15 -10 q5 -7 3 -17 q-2 -8 -9 -13 q-7 -5 -17 -4 l-77 15 q-9 1 -16.5 -3.5 q-7.5 -4.5 -7.5 -13.5 l-6 -39 q-1 -10 4.5 -15.5 q5.5 -5.5 15.5 -5.5 l113 5 q9 1 15 -5 q6 -6 8 -15 l1 -22 q0 -10 -6 -16.5 q-6 -6.5 -16 -6.5 l-125 -7 q-8 0 -15.5 -6 q-7.5 -6 -9.5 -17 l-2 -9 q-1 -9 -8 -14 q-7 -5 -16 -4 l-44 5 q-9 2 -14.5 8 q-5.5 6 -4.5 14 q1 8 -4 13.5 q-5 5.5 -15 4.5 l-34 -2 q-9 -1 -15.5 5 q-6.5 6 -7.5 16 l-1 22 q0 8 5.5 15 q5.5 7 14.5 8 l48 2 q9 0 16.5 6.5 q7.5 6.5 7.5 15.5 l31 223 q1 9 -4 15 q-5 6 -15 6 l-62 -5 q-9 -1 -16 5 q-7 6 -7 16 l-2 23 q0 9 -7 14.5 q-7 5.5 -16 3.5 l-17 -2 q-10 -1 -16.5 -8.5 q-6.5 -7.5 -7.5 -16.5 l-30 -371 q-2 -9 -8.5 -14.5 q-6.5 -5.5 -16.5 -5.5 l-43 4 q-9 2 -15.5 8 q-6.5 6 -5.5 15 l54 636 q1 10 7.5 15.5 q6.5 5.5 15.5 4.5 l44 -4 q10 -1 16 -7 q6 -6 5 -17 l-12 -131 q0 -9 6 -14 q6 -5 15 -4 l28 4 q9 2 16 -3.5 q7 -5.5 9 -14.5 l4 -26 q1 -9 8.5 -15 q7.5 -6 17.5 -5 l140 9 q9 1 15.5 5 q6.5 4 7.5 9 q0 6 -6.5 9.5 q-6.5 3.5 -15.5 1.5 l-83 -3 q-9 -1 -15.5 5.5 q-6.5 6.5 -7.5 15.5 q0 9 6 15.5 q6 6.5 15 7.5 l87 3 q9 1 16 6 q7 5 7 11 q0 6 -6 10.5 q-6 4.5 -16 4.5 l-108 3 q-10 1 -16 7 q-6 6 -6 16 l2 43 q0 10 6 16 q6 6 15 6 l112 -2 q9 0 16 5.5 q7 5.5 7 16.5 l1 26 q1 9 8 15.5 q7 6.5 15 5.5 l45 -2 q9 0 15.5 -7 q6.5 -7 5.5 -16 l-1 -25 q-2 -9 4.5 -15 q6.5 -6 15.5 -6 l101 -3 q10 0 16 -6 q6 -6 5 -17 l0 -43 q-1 -10 -7.5 -16 q-6.5 -6 -15.5 -5 l-103 1 q-10 1 -16 -3 q-6 -4 -7 -8 q0 -6 6 -9.5 q6 -3.5 16 -2.5 l87 4 q9 1 15.5 -5.5 q6.5 -6.5 7.5 -15.5 q0 -9 -6 -15.5 q-6 -6.5 -15 -7.5 l-92 -5 q-9 0 -15.5 -3.5 q-6.5 -3.5 -7.5 -7.5 q0 -5 6.5 -8.5 q6.5 -3.5 15.5 -2.5 l159 11 q9 1 16 -5.5 q7 -6.5 8 -14.5 l2 -45 Z" /><glyph glyph-name="uni60CA" unicode="&#x60ca;" d="M331 355 q-5 -5 -9 -13 q-4 -8 -3 -15 l9 -287 q0 -7 -4.5 -12.5 q-4.5 -5.5 -12.5 -6.5 l-26 0 q-7 -1 -12 4 q-5 5 -5 12 l-9 241 q0 5 -4 7.5 q-4 2.5 -9 -2.5 l-43 -36 q-6 -5 -13.5 -5.5 q-7.5 -0.5 -13.5 2.5 l-20 12 q-7 2 -11 9.5 q-4 7.5 -3 15.5 l22 190 q0 6 6 10.5 q6 4.5 12 4.5 l37 -5 q7 -1 11.5 -6 q4.5 -5 3.5 -12 l-10 -90 q-1 -8 2.5 -9.5 q3.5 -1.5 8.5 2.5 l8 7 q6 5 9.5 13 q3.5 8 3.5 15 l-9 276 q0 7 4.5 12 q4.5 5 11.5 5 l28 1 q6 0 11 -4.5 q5 -4.5 6 -11.5 l7 -229 q0 -7 4 -8.5 q4 -1.5 9 2.5 l40 34 q5 4 12 3.5 q7 -0.5 12 -6.5 l24 -28 q4 -5 3 -12.5 q-1 -7.5 -5 -10.5 l-83 -69 ZM386 589 q-1 6 4 12 q5 6 11 7 l153 15 q8 1 9 5 q1 4 -5 8 l-37 37 q-6 5 -6 12 q0 7 4 12 l36 38 q6 5 13 5 q7 0 11 -3 l75 -72 q5 -4 6 -11 q1 -7 -4 -12 q-4 -3 -2 -6 q2 -3 9 -2 l143 15 q7 0 12 -4.5 q5 -4.5 6 -10.5 l4 -38 q1 -6 -3.5 -11.5 q-4.5 -5.5 -11.5 -6.5 l-404 -42 q-8 0 -12.5 4 q-4.5 4 -5.5 11 l-5 38 ZM678 304 q-7 0 -11.5 -4.5 q-4.5 -4.5 -4.5 -11.5 l2 -294 q0 -7 -4.5 -11.5 q-4.5 -4.5 -11.5 -3.5 l-126 22 q-6 1 -10 6.5 q-4 5.5 -3 12.5 l8 46 q1 7 6.5 11.5 q5.5 4.5 13.5 3.5 l30 -6 q6 -1 11 3 q5 4 5 11 l-3 205 q0 8 -5 12.5 q-5 4.5 -11 5.5 l-93 7 q-7 1 -12 6.5 q-5 5.5 -4 11.5 l5 140 q1 7 6 11.5 q5 4.5 11 4.5 l31 -1 q7 0 11.5 -5.5 q4.5 -5.5 4.5 -13.5 l-3 -76 q0 -7 4.5 -12.5 q4.5 -5.5 12.5 -5.5 l195 -15 q7 -1 11.5 3.5 q4.5 4.5 3.5 11.5 l-7 71 q-1 7 -6 12 q-5 5 -13 5 l-115 5 q-8 0 -12.5 5 q-4.5 5 -3.5 12 l1 31 q0 7 4.5 11.5 q4.5 4.5 12.5 4.5 l171 -6 q7 0 12.5 -5.5 q5.5 -5.5 6.5 -12.5 l22 -203 q1 -6 -3.5 -11 q-4.5 -5 -11.5 -4 l-128 10 ZM418 252 q0 7 4.5 12.5 q4.5 5.5 12.5 3.5 l52 -1 q7 -1 12 -5.5 q5 -4.5 4 -11.5 l-4 -137 q-1 -7 -6 -11.5 q-5 -4.5 -12 -4.5 l-52 2 q-7 0 -12 5.5 q-5 5.5 -5 12.5 l6 135 ZM785 233 q7 3 13.5 0.5 q6.5 -2.5 8.5 -9.5 l50 -141 q3 -5 0 -11.5 q-3 -6.5 -10 -8.5 l-45 -18 q-5 -2 -11.5 1.5 q-6.5 3.5 -8.5 10.5 l-51 139 q-3 7 0 12.5 q3 5.5 9 9.5 l45 15 Z" /><glyph glyph-name="uni6211" unicode="&#x6211;" d="M853 46 q1 -11 -4.5 -17.5 q-5.5 -6.5 -13.5 -9.5 l-167 -31 q-10 -2 -16.5 3 q-6.5 5 -8.5 15 l-16 104 q-1 9 -8 13 q-7 4 -16 2 l-72 -24 q-8 -2 -17 1.5 q-9 3.5 -11 12.5 l-14 41 q-3 9 1 17 q4 8 13 12 l87 29 q9 2 14 10.5 q5 8.5 4 17.5 l-13 84 q-1 10 -8.5 16 q-7.5 6 -16.5 6 l-146 0 q-9 0 -16 -6 q-7 -6 -8 -16 l-4 -26 q-1 -9 0.5 -15.5 q1.5 -6.5 5.5 -6.5 q2 0 4.5 -6.5 q2.5 -6.5 2.5 -15.5 l0 -43 q0 -10 -3.5 -16 q-3.5 -6 -9.5 -6 q-4 0 -9 -6.5 q-5 -6.5 -5 -15.5 l-19 -167 q-1 -9 -8 -14 q-7 -5 -16 -2 l-120 31 q-8 2 -12.5 9.5 q-4.5 7.5 -2.5 16.5 l10 43 q4 9 11.5 13 q7.5 4 16.5 3 l21 -6 q9 -2 16 2.5 q7 4.5 8 13.5 l6 57 q1 9 -4.5 15.5 q-5.5 6.5 -15.5 6.5 l-124 0 q-9 0 -15.5 6 q-6.5 6 -6.5 16 l0 43 q0 9 6.5 15.5 q6.5 6.5 15.5 6.5 l134 0 q10 0 17.5 6.5 q7.5 6.5 8.5 15.5 l2 26 q1 10 -4.5 16 q-5.5 6 -15.5 6 l-142 0 q-9 0 -15.5 6.5 q-6.5 6.5 -6.5 15.5 l0 18 q0 10 6.5 16 q6.5 6 15.5 6 l149 0 q10 0 16.5 6.5 q6.5 6.5 8.5 15.5 l13 117 q1 10 -4 13.5 q-5 3.5 -13 -1.5 l-69 -37 q-9 -4 -17 -1.5 q-8 2.5 -13 10.5 l-21 39 q-4 9 -1 17.5 q3 8.5 11 12.5 l247 130 q8 5 16.5 2 q8.5 -3 13.5 -11 l21 -39 q4 -7 0.5 -16 q-3.5 -9 -10.5 -14 l-45 -23 q-8 -4 -14.5 -13.5 q-6.5 -9.5 -6.5 -18.5 l-20 -167 q-1 -9 4.5 -15.5 q5.5 -6.5 15.5 -6.5 l130 0 q9 0 14 6.5 q5 6.5 4 15.5 l-20 134 q-1 9 4.5 16 q5.5 7 14.5 9 l44 6 q9 1 16.5 -4.5 q7.5 -5.5 7.5 -14.5 l23 -146 q1 -9 8.5 -15.5 q7.5 -6.5 16.5 -6.5 l132 0 q9 0 15.5 -6 q6.5 -6 6.5 -16 l0 -18 q0 -9 -6.5 -15.5 q-6.5 -6.5 -15.5 -6.5 l-124 0 q-8 0 -14 -6 q-6 -6 -4 -16 l9 -56 q1 -8 8 -12.5 q7 -4.5 16 -1.5 l39 13 q8 2 16 -1.5 q8 -3.5 12 -12.5 l13 -41 q3 -10 -1 -18 q-4 -8 -12 -10 l-54 -18 q-10 -3 -14.5 -11.5 q-4.5 -8.5 -3.5 -17.5 l5 -31 q1 -8 8 -13.5 q7 -5.5 16 -3.5 l77 15 q9 1 16.5 -3.5 q7.5 -4.5 8.5 -14.5 l10 -42 ZM868 529 q5 -7 4.5 -15.5 q-0.5 -8.5 -8.5 -15.5 l-32 -29 q-8 -6 -16.5 -5.5 q-8.5 0.5 -14.5 7.5 l-85 100 q-7 7 -6 16.5 q1 9.5 8 14.5 l33 29 q7 6 16 5.5 q9 -0.5 16 -7.5 l85 -100 Z" /><glyph glyph-name="uni624B" unicode="&#x624b;" d="M827 293 q11 -2 16.5 -8 q5.5 -6 4.5 -15 l-1 -44 q-1 -9 -7.5 -15.5 q-6.5 -6.5 -15.5 -5.5 l-285 14 q-8 1 -15 -4.5 q-7 -5.5 -8 -16.5 l-11 -199 q-1 -9 -8 -15 q-7 -6 -15 -5 l-162 13 q-9 2 -15.5 8 q-6.5 6 -4.5 15 l3 44 q1 11 8 16.5 q7 5.5 16 4.5 l71 -6 q11 -1 17 4.5 q6 5.5 8 15.5 l5 109 q1 10 -5 16.5 q-6 6.5 -15 6.5 l-236 13 q-10 1 -16 7 q-6 6 -5 17 l2 43 q0 8 7 14.5 q7 6.5 16 6.5 l237 -13 q8 -1 15 5.5 q7 6.5 8 15.5 l4 61 q0 9 -6 15 q-6 6 -16 5 l-153 -12 q-10 -1 -16.5 5 q-6.5 6 -7.5 15 l-4 43 q-1 11 5.5 17 q6.5 6 14.5 8 l167 12 q9 1 15.5 8 q6.5 7 7.5 16 l3 65 q1 9 -4.5 14 q-5.5 5 -16.5 4 l-121 -19 q-10 -3 -22 -1 q-12 2 -20 5 l-52 22 q-8 4 -11.5 12 q-3.5 8 0.5 17 l17 40 q4 8 12.5 11.5 q8.5 3.5 16.5 0.5 l28 -12 q8 -3 20.5 -5 q12.5 -2 21.5 0 l347 58 q10 1 17.5 -4 q7.5 -5 8.5 -14 l7 -44 q2 -8 -4 -15.5 q-6 -7.5 -15 -9.5 l-118 -20 q-8 -1 -15 -8.5 q-7 -7.5 -8 -16.5 l-4 -73 q0 -9 6 -14.5 q6 -5.5 15 -4.5 l154 12 q10 0 16.5 -5.5 q6.5 -5.5 7.5 -14.5 l4 -44 q1 -9 -5 -16 q-6 -7 -15 -8 l-167 -13 q-10 -1 -16.5 -8 q-6.5 -7 -6.5 -16 l-4 -72 q-1 -10 5 -16 q6 -6 15 -7 l283 -15 l0 0 Z" /><glyph glyph-name="uni627F" unicode="&#x627f;" d="M669 215 q8 0 13.5 -5 q5.5 -5 5.5 -13 l0 -35 q1 -7 -4 -12.5 q-5 -5.5 -13 -5.5 l-109 -2 q-8 0 -13 -5 q-5 -5 -5 -12 l-1 -146 q0 -7 -4.5 -12 q-4.5 -5 -12.5 -5 l-196 0 q-7 0 -12 5 q-5 5 -5 12 l0 75 q0 6 5 11.5 q5 5.5 12 5.5 l85 0 q7 0 13 5 q6 5 6 12 l0 35 q0 8 -5.5 12.5 q-5.5 4.5 -13.5 4.5 l-130 -3 q-8 0 -12.5 5.5 q-4.5 5.5 -5.5 12.5 l0 35 q0 7 4.5 12.5 q4.5 5.5 12.5 5.5 l132 2 q7 0 12.5 5 q5.5 5 5.5 13 l0 41 q0 8 -5.5 12.5 q-5.5 4.5 -12.5 4.5 l-111 -6 q-7 0 -13 5 q-6 5 -6 12 l0 10 q-1 6 4.5 12 q5.5 6 12.5 6 l113 5 q8 0 13.5 5.5 q5.5 5.5 5.5 12.5 l0 69 q0 7 -5.5 12 q-5.5 5 -11.5 4 l-80 -5 q-8 0 -13 5 q-5 5 -5 13 l-4 51 q0 8 5 13.5 q5 5.5 11 6.5 l96 5 q7 1 15 5.5 q8 4.5 12 10.5 l63 94 q4 7 2 11 q-2 4 -9 4 l-280 0 q-7 0 -12 5 q-5 5 -5 12 l0 75 q0 8 5 13 q5 5 12 5 l486 0 q8 0 10 -4.5 q2 -4.5 -2 -10.5 l-132 -196 q-4 -6 -2 -10 q2 -4 11 -3 l6 0 q7 0 13 -4.5 q6 -4.5 6 -11.5 l3 -53 q1 -8 -4 -13 q-5 -5 -13 -5 l-49 -4 q-7 0 -12.5 -5.5 q-5.5 -5.5 -6.5 -12.5 l0 -71 q0 -7 5.5 -12.5 q5.5 -5.5 11.5 -5.5 l41 3 q8 0 13 -5 q5 -5 5 -12 l1 -9 q0 -8 -5 -13 q-5 -5 -12 -5 l-43 -2 q-6 0 -11.5 -5.5 q-5.5 -5.5 -5.5 -13.5 l0 -42 q0 -8 5.5 -13.5 q5.5 -5.5 11.5 -5.5 l107 3 ZM299 435 q7 -1 10 -7 q3 -6 -1 -13 l-133 -312 q-2 -7 -9.5 -9.5 q-7.5 -2.5 -13.5 0.5 l-33 14 q-7 3 -9.5 9.5 q-2.5 6.5 -0.5 13.5 l103 238 q2 7 -1 12.5 q-3 5.5 -10 7.5 l-58 15 q-7 3 -10.5 9 q-3.5 6 -1.5 13 l8 33 q3 9 9 12 q6 3 13 1 l138 -37 ZM889 49 q3 -6 1 -13 q-2 -7 -8 -10 l-36 -18 q-5 -5 -12.5 -2.5 q-7.5 2.5 -10.5 8.5 l-212 383 q-3 6 -1 13.5 q2 7.5 9 11.5 l35 18 q6 5 13 2.5 q7 -2.5 10 -9.5 l36 -64 q5 -7 11 -8.5 q6 -1.5 11 3.5 l76 66 q7 4 14 3.5 q7 -0.5 11 -6.5 l36 -39 q4 -6 3.5 -13.5 q-0.5 -7.5 -6.5 -11.5 l-90 -78 q-5 -5 -6.5 -13 q-1.5 -8 1.5 -14 l115 -209 Z" /><glyph glyph-name="uni63A5" unicode="&#x63a5;" d="M386 428 q6 -7 6.5 -16.5 q0.5 -9.5 -6.5 -16.5 l-47 -48 q-5 -6 -10.5 -16.5 q-5.5 -10.5 -5.5 -21.5 l-3 -217 q0 -9 -3.5 -21.5 q-3.5 -12.5 -8.5 -20.5 l-47 -79 q-5 -8 -13.5 -9.5 q-8.5 -1.5 -16.5 1.5 l-38 22 q-8 4 -10 13.5 q-2 9.5 2 17.5 l36 60 q4 7 7 19 q3 12 3 21 l2 101 q0 8 -4 10 q-4 2 -10 -4 l-28 -29 q-6 -7 -15 -7 q-9 0 -16 7 l-31 30 q-7 6 -7 15 q0 9 6 16 l94 97 q6 7 10.5 17.5 q4.5 10.5 4.5 20.5 l2 105 q0 11 -6 15.5 q-6 4.5 -14 2.5 l-65 -14 q-9 -2 -16.5 2.5 q-7.5 4.5 -9.5 13.5 l-11 44 q-2 8 3 16 q5 8 13 9 l87 20 q9 2 15.5 9.5 q6.5 7.5 6.5 16.5 l1 66 q0 9 6 15 q6 6 17 6 l43 -1 q10 0 16 -7 q6 -7 6 -15 l-1 -43 q0 -9 6.5 -14.5 q6.5 -5.5 14.5 -4.5 l4 1 q10 3 17.5 -1.5 q7.5 -4.5 9.5 -14.5 l9 -42 q2 -9 -3 -16.5 q-5 -7.5 -14 -10.5 l-26 -5 q-8 -3 -14 -10.5 q-6 -7.5 -6 -16.5 l-1 -33 q0 -9 1.5 -14.5 q1.5 -5.5 3.5 -1.5 q3 2 9 -1 q6 -3 13 -8 l32 -30 ZM743 129 q-2 -8 2 -16.5 q4 -8.5 12 -10.5 l102 -37 q9 -3 12.5 -11 q3.5 -8 1.5 -17 l-15 -42 q-4 -9 -12 -12.5 q-8 -3.5 -16 0.5 l-102 35 q-9 4 -17 0 q-8 -4 -12 -12 l-3 -10 q-3 -9 -11.5 -15 q-8.5 -6 -17.5 -8 l-179 -20 q-10 -1 -16.5 4.5 q-6.5 5.5 -8.5 14.5 l-4 44 q-1 9 4 16 q5 7 15 8 l122 14 q11 1 11 4 q0 3 -10 5 l-190 68 q-8 3 -10.5 10.5 q-2.5 7.5 2.5 14.5 l60 81 q6 8 4 12.5 q-2 4.5 -13 4.5 l-49 -1 q-11 0 -17 6 q-6 6 -6 16 l0 45 q-1 8 5.5 14.5 q6.5 6.5 15.5 6.5 l118 2 q10 0 20 5.5 q10 5.5 16 12.5 l17 23 q6 7 3 12 q-3 5 -12 5 l-128 0 q-9 0 -15.5 6.5 q-6.5 6.5 -6.5 15.5 l0 44 q0 9 6.5 15.5 q6.5 6.5 15.5 6.5 l63 0 q9 0 13.5 6 q4.5 6 1.5 15 l-23 68 q-2 8 1.5 17 q3.5 9 12.5 11 l35 11 q8 3 8 5 q0 2 -10 2 l-115 -4 q-9 0 -15 5.5 q-6 5.5 -8 16.5 l-1 43 q0 9 6.5 15.5 q6.5 6.5 14.5 7.5 l118 4 q10 0 15 3.5 q5 3.5 3 7.5 q-4 5 0.5 11 q4.5 6 12.5 10 l40 21 q6 4 15 0.5 q9 -3.5 13 -11.5 l11 -19 q4 -8 13.5 -13.5 q9.5 -5.5 18.5 -5.5 l161 6 q9 0 16 -6.5 q7 -6.5 7 -15.5 l1 -44 q1 -9 -5.5 -16 q-6.5 -7 -15.5 -7 l-69 -2 q-10 -1 -11 -5 q-1 -4 6 -10 l12 -10 q7 -6 7.5 -15 q0.5 -9 -5.5 -16 l-58 -69 q-7 -7 -4 -12 q3 -5 11 -5 l110 0 q8 0 15 -6.5 q7 -6.5 7 -15.5 l0 -44 q0 -9 -7 -15.5 q-7 -6.5 -15 -6.5 l-139 0 q-9 0 -14.5 -1 q-5.5 -1 -2.5 -2 q1 -1 -1.5 -7.5 q-2.5 -6.5 -7.5 -13.5 l-11 -14 q-6 -8 -3.5 -13 q2.5 -5 12.5 -5 l183 3 q9 0 15.5 -6 q6.5 -6 7.5 -16 l0 -43 q0 -9 -5.5 -15.5 q-5.5 -6.5 -16.5 -6.5 l-50 -1 q-9 0 -18 -6.5 q-9 -6.5 -12 -14.5 l-38 -110 ZM603 525 q3 -9 9 -10 q6 -1 12 7 l79 91 q5 7 3 11.5 q-2 4.5 -11 4.5 l-104 -4 q-9 0 -13 -6 q-4 -6 -2 -15 l27 -79 ZM688 237 q2 9 -2 14.5 q-4 5.5 -13 5.5 l-62 -1 q-11 0 -20.5 -5 q-9.5 -5 -15.5 -12 l-30 -40 q-6 -7 -3.5 -14.5 q2.5 -7.5 11.5 -9.5 l80 -29 q8 -4 16.5 0 q8.5 4 10.5 13 l28 78 Z" /><glyph glyph-name="uni662F" unicode="&#x662f;" d="M232 540 q-9 0 -15.5 6 q-6.5 6 -7.5 15 l-1 45 q-1 8 5 15 q6 7 14 7 q8 1 14 7 q6 6 5 16 l-6 78 q-1 9 4.5 15.5 q5.5 6.5 14.5 6.5 l409 0 q9 0 17.5 -6.5 q8.5 -6.5 12.5 -14.5 l85 -237 q3 -8 -1.5 -15 q-4.5 -7 -12.5 -8 l-481 -61 q-9 -1 -16 4.5 q-7 5.5 -8 14.5 l-7 92 q-1 9 -8 15 q-7 6 -16 5 l-1 0 ZM355 662 q-9 0 -15 -4 q-6 -4 -6 -11 q1 -6 7.5 -10 q6.5 -4 16.5 -4 l161 7 q10 1 16.5 -5 q6.5 -6 6.5 -15 l3 -44 q0 -9 -6.5 -15.5 q-6.5 -6.5 -14.5 -7.5 l-160 -7 q-8 -1 -14.5 -7 q-6.5 -6 -4.5 -14 q1 -8 7.5 -13 q6.5 -5 15.5 -4 l280 36 q9 1 13 8 q4 7 2 15 l-28 74 q-3 10 -11 15.5 q-8 5.5 -18 5.5 l-251 0 ZM832 55 q8 -4 12.5 -11 q4.5 -7 1.5 -17 l-13 -41 q-2 -9 -10 -13.5 q-8 -4.5 -17 -1.5 l-453 137 q-10 2 -19.5 -1 q-9.5 -3 -16.5 -10 q-31 -36 -49 -58.5 q-18 -22.5 -27 -34.5 q-11 -13 -15 -18 q1 2 -4 5 q-5 3 -14 6 l-41 18 q-9 3 -13.5 8 q-4.5 5 -2.5 10 q3 5 16 21 q11 14 35 42 q24 28 67 80 q7 7 13 15.5 q6 8.5 11 12.5 q3 4 12.5 5.5 q9.5 1.5 17.5 -1.5 l119 -36 q9 -3 15.5 1.5 q6.5 4.5 6.5 13.5 l2 91 q0 8 -5.5 15 q-5.5 7 -14.5 8 l-262 15 q-10 1 -15.5 7.5 q-5.5 6.5 -5.5 15.5 l3 45 q0 9 7 15 q7 6 16 4 l640 -38 q9 0 14.5 -6.5 q5.5 -6.5 5.5 -16.5 l-3 -43 q0 -9 -7 -15 q-7 -6 -16 -6 l-246 15 q-9 0 -15.5 -6 q-6.5 -6 -6.5 -15 l-1 -33 q0 -9 5.5 -14.5 q5.5 -5.5 15.5 -2.5 l86 16 q9 1 16.5 -3.5 q7.5 -4.5 8.5 -13.5 l9 -44 q1 -9 -4 -16.5 q-5 -7.5 -14 -8.5 l-79 -17 q-10 -1 -10 -3.5 q0 -2.5 8 -6.5 l236 -70 Z" /><glyph glyph-name="uni6700" unicode="&#x6700;" d="M405 14 q1 8 -3.5 11.5 q-4.5 3.5 -12.5 1.5 l-194 -66 q-7 -2 -14 1 q-7 3 -9 11 l-18 52 q-2 7 1 14 q3 7 11 9 l61 21 q8 2 13 9 q5 7 6 15 l16 226 q1 8 -4 13 q-5 5 -13 5 l-21 -1 q-8 0 -13 5 q-5 5 -6 13 l-1 32 q0 8 5 13.5 q5 5.5 13 5.5 l590 19 q8 0 13.5 -5 q5.5 -5 5.5 -13 l1 -32 q0 -8 -5 -13.5 q-5 -5.5 -13 -5.5 l-270 -9 q-8 0 -13.5 -5.5 q-5.5 -5.5 -6.5 -13.5 l-12 -143 q-1 -8 -0.5 -13 q0.5 -5 2.5 -4 q2 1 5 -4 q3 -5 5 -12 l18 -53 q2 -7 -1 -14 q-3 -7 -10 -9 l-12 -4 q-7 -2 -12.5 -9 q-5.5 -7 -6.5 -15 l-6 -79 q-1 -8 -6.5 -13 q-5.5 -5 -13.5 -4 l-55 5 q-8 1 -13 6.5 q-5 5.5 -4 13.5 l3 38 ZM354 303 q-1 -8 4 -12.5 q5 -4.5 13 -3.5 l39 6 q8 1 13.5 7 q5.5 6 6.5 14 l1 11 q1 8 -4 13 q-5 5 -13 4 l-39 -1 q-8 0 -13.5 -5.5 q-5.5 -5.5 -6.5 -13.5 l-1 -19 ZM367 240 q-8 -1 -13.5 -5 q-5.5 -4 -5.5 -9 q0 -11 17 -9 l39 6 q18 2 20 14 q0 5 -5 7.5 q-5 2.5 -13 1.5 l-39 -6 ZM341 126 q-1 -8 3.5 -11.5 q4.5 -3.5 12.5 -1.5 l41 14 q7 2 12.5 9 q5.5 7 6.5 15 l0 9 q1 8 -3.5 12.5 q-4.5 4.5 -12.5 3.5 l-39 -6 q-8 -1 -13.5 -7 q-5.5 -6 -6.5 -14 l-1 -23 ZM846 317 q16 0 8 -15 l-123 -174 q-4 -6 -4 -15 q0 -9 5 -15 l79 -98 q11 -14 -3 -26 l-43 -34 q-6 -5 -13.5 -4 q-7.5 1 -12.5 7 l-62 77 q-5 6 -11 5.5 q-6 -0.5 -11 -6.5 l-50 -72 q-5 -6 -12.5 -7.5 q-7.5 -1.5 -13.5 3.5 l-45 31 q-7 5 -8.5 12.5 q-1.5 7.5 3.5 13.5 l66 94 q5 6 4.5 15 q-0.5 9 -5.5 15 l-20 24 q-5 6 -4 13.5 q1 7.5 7 12.5 l43 35 q6 5 13.5 4 q7.5 -1 12.5 -7 l3 -4 q5 -6 11 -5.5 q6 0.5 11 6.5 l5 7 q5 6 3 10.5 q-2 4.5 -10 4.5 l-80 0 q-8 0 -13 5.5 q-5 5.5 -5 13.5 l0 55 q0 8 5 13 q5 5 13 5 l257 0 ZM791 488 q1 -8 -4 -13.5 q-5 -5.5 -13 -5.5 l-492 -43 q-8 -1 -13.5 4 q-5.5 5 -5.5 13 l0 186 q0 8 5.5 13 q5.5 5 13.5 5 l41 0 q8 0 13.5 -5 q5.5 -5 5.5 -13 l0 -32 q0 -8 5 -13 q5 -5 13 -4 l234 21 q8 0 13.5 -4.5 q5.5 -4.5 6.5 -12.5 l1 -15 q1 -8 -3.5 -14 q-4.5 -6 -12.5 -6 l-239 -21 q-8 -1 -13 -4 q-5 -3 -5 -6 q0 -3 5 -5 q5 -2 13 -1 l328 28 q8 1 12.5 6.5 q4.5 5.5 3.5 13.5 l-6 53 q-1 8 -6.5 12.5 q-5.5 4.5 -13.5 3.5 l-290 -34 q-8 -1 -14 3.5 q-6 4.5 -7 12.5 l-5 41 q-1 8 3.5 13.5 q4.5 5.5 12.5 7.5 l369 43 q8 1 14 -3.5 q6 -4.5 7 -12.5 l23 -212 Z" /><glyph glyph-name="uni6B21" unicode="&#x6b21;" d="M121 548 q-7 2 -9.5 9 q-2.5 7 -0.5 14 l34 80 q4 7 10.5 10 q6.5 3 12.5 1 l155 -65 q5 -3 8 -10 q3 -7 1 -13 l-35 -81 q-2 -7 -9 -10 q-7 -3 -14 0 l-153 65 ZM372 238 q6 -4 6 -11.5 q0 -7.5 -5 -12.5 l-175 -193 q-4 -6 -11.5 -6.5 q-7.5 -0.5 -13.5 4.5 l-71 65 q-6 5 -6 12 q0 7 5 12 l174 194 q5 5 12.5 6 q7.5 1 13.5 -4 l71 -66 ZM335 470 q-7 2 -9.5 8.5 q-2.5 6.5 -0.5 12.5 l85 258 q2 7 8.5 10.5 q6.5 3.5 13.5 1.5 l84 -28 q7 -2 10.5 -8.5 q3.5 -6.5 0.5 -13.5 l-12 -40 q-4 -6 -0.5 -11 q3.5 -5 11.5 -5 l342 11 q7 0 10 -4.5 q3 -4.5 1 -11.5 l-65 -182 q-3 -6 -9 -9.5 q-6 -3.5 -13 -0.5 l-67 23 q-7 2 -10 9 q-3 7 0 14 l12 36 q3 7 0 11.5 q-3 4.5 -11 4.5 l-226 -7 q-6 0 -13 -5 q-7 -5 -10 -12 l-25 -79 q-3 -6 -9.5 -9.5 q-6.5 -3.5 -13.5 -1.5 l-84 28 ZM892 164 q7 -4 9.5 -11 q2.5 -7 0.5 -12 l-41 -107 q-3 -7 -9 -10 q-6 -3 -13 -1 l-301 115 q-7 3 -14 0 q-7 -3 -9 -10 l-71 -160 q-2 -7 -9 -9.5 q-7 -2.5 -14 0.5 l-88 38 q-7 2 -9.5 9 q-2.5 7 0.5 14 l214 499 q2 7 9 9.5 q7 2.5 14 -0.5 l88 -38 q7 -3 9.5 -9.5 q2.5 -6.5 -0.5 -13.5 l-72 -169 q-2 -7 0.5 -13 q2.5 -6 9.5 -9 l296 -112 Z" /><glyph glyph-name="uni6B64" unicode="&#x6b64;" d="M486 89 q2 -7 -2 -13 q-4 -6 -11 -9 l-346 -101 q-7 -1 -13.5 2.5 q-6.5 3.5 -8.5 10.5 l-22 76 q-2 7 1.5 13 q3.5 6 10.5 9 l52 15 q6 2 11 7.5 q5 5.5 4 13.5 l-34 492 q-1 6 3.5 12 q4.5 6 12.5 6 l53 5 q7 0 12 -5 q5 -5 7 -13 l33 -471 q0 -8 4.5 -11.5 q4.5 -3.5 11.5 -1.5 q7 1 11.5 7.5 q4.5 6.5 3.5 14.5 l-9 566 q-1 8 4 13 q5 5 13 5 l78 1 q8 0 13.5 -4.5 q5.5 -4.5 5.5 -12.5 l2 -143 q0 -6 5 -11.5 q5 -5.5 13 -4.5 l41 2 q8 1 13 -4 q5 -5 6 -13 l4 -79 q1 -7 -3.5 -12 q-4.5 -5 -13.5 -6 l-44 -3 q-8 0 -13 -5 q-5 -5 -5 -13 l5 -244 q0 -7 4.5 -10.5 q4.5 -3.5 12.5 -1.5 l30 9 q7 2 13.5 -1.5 q6.5 -3.5 8.5 -10.5 l22 -76 ZM903 207 q7 -2 11.5 -7 q4.5 -5 3.5 -13 l-30 -197 q-1 -6 -6.5 -11.5 q-5.5 -5.5 -12.5 -6.5 l-360 -11 q-7 0 -12 5 q-5 5 -5 12 l35 762 q0 8 6 12.5 q6 4.5 13 4.5 l96 -4 q7 0 12 -5 q5 -5 5 -14 l-9 -193 q-1 -7 4 -11 q5 -4 12 -3 l184 37 q7 1 13.5 -2 q6.5 -3 7.5 -12 l16 -77 q1 -8 -3 -13.5 q-4 -5.5 -11 -6.5 l-212 -43 q-7 -2 -12.5 -8.5 q-5.5 -6.5 -5.5 -13.5 l-12 -275 q0 -6 4.5 -11 q4.5 -5 11.5 -5 l108 4 q7 1 12.5 5.5 q5.5 4.5 6.5 11.5 l13 89 q1 7 7 11.5 q6 4.5 13 3.5 l96 -15 Z" /><glyph glyph-name="uni6EF4" unicode="&#x6ef4;" d="M132 659 q-10 6 -12.5 16.5 q-2.5 10.5 2.5 19.5 l19 31 q5 9 15.5 11.5 q10.5 2.5 19.5 -3.5 l74 -42 q9 -6 12 -17 q3 -11 -3 -20 l-18 -30 q-5 -9 -16 -12 q-11 -3 -20 3 l-73 43 ZM127 446 q-8 5 -10.5 16 q-2.5 11 3.5 20 l31 47 q7 10 17.5 12 q10.5 2 20.5 -5 l75 -49 q8 -6 10 -16.5 q2 -10.5 -3 -20.5 l-33 -47 q-5 -9 -15.5 -11.5 q-10.5 -2.5 -20.5 3.5 l-75 51 ZM284 306 q11 -2 16.5 -11 q5.5 -9 2.5 -21 l-75 -290 q-2 -10 -11.5 -15.5 q-9.5 -5.5 -20.5 -2.5 l-76 20 q-11 3 -17 12 q-6 9 -3 20 l75 290 q4 11 13 16 q9 5 19 3 l77 -21 ZM876 550 q10 1 17.5 -6.5 q7.5 -7.5 7.5 -18.5 l-2 -536 q0 -10 -7.5 -17.5 q-7.5 -7.5 -19.5 -7.5 l-111 4 q-12 1 -19.5 8.5 q-7.5 7.5 -6.5 19.5 l3 57 q0 12 8 19 q8 7 18 7 q10 0 17.5 6.5 q7.5 6.5 7.5 17.5 l1 305 q2 10 -6 17.5 q-8 7.5 -19 6.5 l-88 -6 q-6 -1 -10 -1 q-4 0 -8 0 q-4 -1 -8 -1 l0 -20 q0 -9 8 -15 q8 -6 19 -4 l60 1 q10 0 18 -7.5 q8 -7.5 8 -19.5 l1 -30 q0 -11 -7.5 -19 q-7.5 -8 -17.5 -8 l-62 -1 q-11 -2 -19 -6.5 q-8 -4.5 -8 -9.5 q0 -7 8 -12 q8 -5 19 -5 l65 0 q11 0 18.5 -7.5 q7.5 -7.5 7.5 -18.5 l0 -128 q0 -10 -7.5 -18 q-7.5 -8 -18.5 -9 l-276 -26 q-10 -1 -17.5 6 q-7.5 7 -7.5 19 l0 156 q0 11 7.5 18.5 q7.5 7.5 18.5 7.5 l48 0 q11 0 18.5 4 q7.5 4 7.5 10 q0 7 -7.5 11 q-7.5 4 -18.5 3 l-52 -1 q-10 0 -18.5 7.5 q-8.5 7.5 -8.5 18.5 l-1 31 q0 11 7.5 19 q7.5 8 19.5 8 l53 1 q11 1 18.5 5.5 q7.5 4.5 7.5 12.5 q0 8 -7.5 13 q-7.5 5 -18.5 3 l-65 -4 q-11 0 -18.5 -8.5 q-7.5 -8.5 -6.5 -19.5 l6 -387 q0 -12 -7 -19.5 q-7 -7.5 -19 -7.5 l-57 -1 q-12 0 -19.5 7.5 q-7.5 7.5 -7.5 19.5 l-9 491 q0 11 7.5 18.5 q7.5 7.5 19.5 8.5 l99 7 q10 1 16.5 9 q6.5 8 2.5 19 l-4 22 q-3 11 -2.5 19 q0.5 8 3.5 8 q2 1 -3 1 q-5 0 -17 -1 l-92 -6 q-10 0 -18 7.5 q-8 7.5 -9 18.5 l-4 57 q0 11 7 19 q7 8 18 9 l151 9 q10 0 17.5 6 q7.5 6 6.5 12 q-1 7 6.5 13.5 q7.5 6.5 17.5 7.5 l57 6 q11 1 19 -3.5 q8 -4.5 9 -13.5 q2 -8 10 -14 q8 -6 19 -5 l216 13 q12 1 20 -6.5 q8 -7.5 9 -17.5 l4 -58 q1 -11 -6.5 -18.5 q-7.5 -7.5 -19.5 -8.5 l-141 -10 q-11 0 -12 -3 q-1 -3 7 -7 q9 -5 12.5 -14.5 q3.5 -9.5 -0.5 -19.5 l-4 -6 q-4 -9 0.5 -16 q4.5 -7 15.5 -6 l125 9 ZM585 605 q-11 -1 -17 -9 q-6 -8 -4 -18 l6 -23 q2 -11 11 -17.5 q9 -6.5 21 -6.5 l17 1 q12 1 14 4 q2 3 -6 6 q-7 4 -9 13 q-2 9 2 19 l4 10 q4 10 0 17 q-4 7 -15 6 l-24 -2 ZM556 180 q-12 0 -19.5 -3.5 q-7.5 -3.5 -7.5 -9.5 q0 -4 7.5 -7.5 q7.5 -3.5 19.5 -2.5 l99 9 q11 1 18.5 3.5 q7.5 2.5 7.5 5.5 q0 1 -7.5 3 q-7.5 2 -18.5 2 l-99 0 Z" /><glyph glyph-name="uni70B9" unicode="&#x70b9;" d="M701 272 q-3 -9 -4.5 -15.5 q-1.5 -6.5 -2.5 -4.5 l-3 0 q-3 -2 -6 -2 q-3 0 -7 0 q-4 0 -8 0 l-364 -17 q-9 -1 -15.5 2.5 q-6.5 3.5 -7.5 9.5 q0 4 0 8 q0 4 -1 4 q0 0 -1 6.5 q-1 6.5 -2 15.5 l-39 243 q-2 9 3.5 16.5 q5.5 7.5 14.5 8.5 l34 6 q10 2 16 1.5 q6 -0.5 7 -2.5 q0 -1 6.5 -3 q6.5 -2 15.5 -2 l105 0 q9 0 15 6.5 q6 6.5 4 15.5 l-17 137 q-1 10 5 17 q6 7 15 8 l34 5 q9 1 16 -4 q7 -5 8 -15 l4 -26 q1 -9 8 -13.5 q7 -4.5 16 -1.5 l87 23 q8 3 16.5 -2 q8.5 -5 10.5 -14 l2 -9 q2 -10 -2.5 -17 q-4.5 -7 -12.5 -11 l-94 -25 q-9 -3 -14.5 -11 q-5.5 -8 -3.5 -17 l2 -24 q1 -9 8.5 -15.5 q7.5 -6.5 16.5 -6.5 l168 0 q10 0 15.5 -5.5 q5.5 -5.5 2.5 -15.5 l-51 -254 ZM346 493 q-9 0 -14.5 -6.5 q-5.5 -6.5 -3.5 -15.5 l21 -132 q1 -9 9 -15 q8 -6 16 -6 l262 13 q9 0 16.5 7 q7.5 7 10.5 15 l24 118 q2 9 -3 15.5 q-5 6.5 -14 6.5 l-324 0 ZM176 40 q-5 -7 -14 -8.5 q-9 -1.5 -17 3.5 l-20 17 q-9 5 -10.5 14 q-1.5 9 4.5 15 l62 91 q6 7 14.5 9 q8.5 2 16.5 -4 l22 -16 q7 -6 8.5 -14.5 q1.5 -8.5 -4.5 -16.5 l-62 -90 ZM305 19 q-7 5 -10.5 13.5 q-3.5 8.5 1.5 16.5 l52 108 q3 8 11.5 11 q8.5 3 16.5 0 l33 -16 q8 -5 10.5 -13.5 q2.5 -8.5 -0.5 -16.5 l-52 -110 q-4 -8 -13 -10.5 q-9 -2.5 -17 1.5 l-32 16 ZM521 117 q-3 9 1.5 17 q4.5 8 12.5 11 l33 11 q10 4 18 0 q8 -4 10 -14 l30 -89 q2 -8 -2 -17 q-4 -9 -13 -11 l-33 -11 q-8 -4 -16.5 0 q-8.5 4 -11.5 13 l-29 90 ZM850 -12 q-6 -5 -15 -4 q-9 1 -15 8 l-109 134 q-6 6 -5.5 16 q0.5 10 7.5 15 l28 23 q7 7 16 6 q9 -1 15 -8 l109 -133 q6 -8 5.5 -17 q-0.5 -9 -8.5 -16 l-28 -24 Z" /><glyph glyph-name="uni7231" unicode="&#x7231;" d="M164 684 q-1 9 5 16 q6 7 15 8 l637 50 q9 0 16 -6 q7 -6 8 -15 l2 -29 q2 -9 -4 -15.5 q-6 -6.5 -15 -7.5 l-638 -49 q-10 -1 -16 4.5 q-6 5.5 -7 15.5 l-3 28 ZM801 539 q10 0 19 -6.5 q9 -6.5 12 -14.5 l41 -92 q3 -9 -0.5 -17 q-3.5 -8 -11.5 -11 l-30 -12 q-8 -3 -16.5 0.5 q-8.5 3.5 -11.5 11.5 l-21 48 q-5 8 -13.5 14.5 q-8.5 6.5 -17.5 6.5 l-292 0 q-10 0 -11 -4 q-1 -4 7 -9 l15 -10 q8 -5 11.5 -10.5 q3.5 -5.5 1.5 -9.5 q-1 -2 3.5 -4.5 q4.5 -2.5 13.5 -2.5 l239 0 q8 0 15 -6 q7 -6 7 -16 l0 -28 q0 -10 -7 -16 q-7 -6 -15 -6 l-293 0 q-10 0 -18 -3 q-8 -3 -12 -6 q-2 -5 2 -8 q4 -3 13 -3 l275 -7 q10 0 17.5 -6 q7.5 -6 8.5 -16 l28 -138 q2 -9 -3 -17.5 q-5 -8.5 -13 -11.5 l-86 -31 q-8 -4 -9 -9.5 q-1 -5.5 6 -10.5 l69 -47 q8 -6 10 -14.5 q2 -8.5 -4 -16.5 l-18 -23 q-6 -7 -14.5 -9 q-8.5 -2 -16.5 4 l-110 74 q-8 6 -19.5 7 q-11.5 1 -19.5 -1 l-240 -89 q-9 -3 -17 1 q-8 4 -12 12 l-11 26 q-4 8 -0.5 16.5 q3.5 8.5 12.5 11.5 l195 71 q8 3 9 9 q1 6 -7 11 l-93 64 q-8 5 -9.5 14 q-1.5 9 4.5 16 l15 21 q6 8 5 13 q-1 5 -9 5 q-8 1 -17 -4 q-9 -5 -14 -13 l-118 -156 q-6 -8 -15 -9.5 q-9 -1.5 -16 4.5 l-25 16 q-8 6 -10 15 q-2 9 4 16 l154 205 q6 6 3 11.5 q-3 5.5 -12 5.5 l-61 0 q-9 0 -16 6 q-7 6 -7 16 l0 28 q0 10 7 16 q7 6 16 6 l116 0 q9 0 19 5.5 q10 5.5 16 11.5 l10 15 q6 7 3.5 12.5 q-2.5 5.5 -11.5 5.5 l-147 0 q-9 0 -18.5 -6.5 q-9.5 -6.5 -12.5 -14.5 l-24 -60 q-3 -8 -11.5 -12 q-8.5 -4 -17.5 0 l-29 10 q-9 3 -12.5 11 q-3.5 8 -0.5 18 l43 105 q3 8 12.5 14.5 q9.5 6.5 17.5 6.5 l34 0 q10 0 12 4.5 q2 4.5 -4 11.5 l-16 17 q-5 9 -4 17.5 q1 8.5 8 14.5 l24 18 q7 6 16 5.5 q9 -0.5 16 -9.5 l39 -44 q6 -7 6.5 -14.5 q0.5 -7.5 -3.5 -12.5 q-5 -2 -2 -5 q3 -3 12 -3 l120 0 q8 0 12.5 6 q4.5 6 0.5 15 l-18 49 q-2 9 1.5 17.5 q3.5 8.5 12.5 10.5 l30 10 q9 3 17 -0.5 q8 -3.5 11 -13.5 l27 -73 q3 -9 12 -15 q9 -6 17 -6 l88 0 q9 0 12.5 3 q3.5 3 -0.5 6 q-5 5 -4 12.5 q1 7.5 7 14.5 l70 71 q7 6 16.5 6.5 q9.5 0.5 15.5 -6.5 l23 -19 q7 -7 7 -16 q0 -9 -5 -16 l-42 -41 q-6 -6 -4 -10.5 q2 -4.5 10 -4.5 l26 0 ZM669 225 q-1 9 -9 15.5 q-8 6.5 -17 7.5 l-223 5 q-10 1 -11 -3 q-1 -4 6 -9 l131 -88 q8 -6 19 -7 q11 -1 19 2 l74 27 q8 3 12.5 11 q4.5 8 3.5 17 l-5 22 Z" /><glyph glyph-name="uni7275" unicode="&#x7275;" d="M668 513 q5 -8 14 -13 q9 -5 20 -5 l141 8 q9 1 15.5 -5.5 q6.5 -6.5 5.5 -15.5 l-2 -117 q-1 -9 -7.5 -15.5 q-6.5 -6.5 -15.5 -5.5 l-27 0 q-9 0 -15.5 6.5 q-6.5 6.5 -4.5 16.5 l0 40 q1 11 -5.5 16.5 q-6.5 5.5 -15.5 4.5 l-541 -30 q-9 -1 -15.5 -8 q-6.5 -7 -4.5 -15 l1 -41 q0 -9 -6 -16 q-6 -7 -15 -7 l-26 -1 q-10 0 -16.5 6 q-6.5 6 -6.5 14 l-5 111 q0 9 6.5 16 q6.5 7 15.5 7 l255 15 q9 0 10 3.5 q1 3.5 -6 7.5 l-10 5 q-8 4 -10 13 q-2 9 1 17 l19 33 q4 8 0.5 14 q-3.5 6 -12.5 4 l-130 -9 q-9 0 -16 6 q-7 6 -7 15 l-2 26 q-1 10 4.5 16.5 q5.5 6.5 16.5 6.5 l174 13 q10 0 19 6.5 q9 6.5 14 14.5 l39 72 q3 8 12.5 11 q9.5 3 15.5 -2 l25 -12 q8 -5 10.5 -13.5 q2.5 -8.5 -1.5 -16.5 l-19 -33 q-4 -9 -0.5 -14 q3.5 -5 12.5 -5 l124 8 q9 1 16 -4.5 q7 -5.5 7 -14.5 l2 -27 q2 -9 -4.5 -16 q-6.5 -7 -15.5 -8 l-54 -3 q-10 -2 -13 -7.5 q-3 -5.5 1 -13.5 l33 -59 ZM466 501 q-5 -8 -1.5 -14 q3.5 -6 11.5 -5 l103 6 q10 1 13 7 q3 6 -2 14 l-32 58 q-5 7 -13.5 13 q-8.5 6 -16.5 5 q-8 0 -16 -6.5 q-8 -6.5 -13 -13.5 l-33 -64 ZM815 244 q9 1 15 -5 q6 -6 8 -16 l1 -43 q1 -9 -5.5 -16 q-6.5 -7 -15.5 -7 l-236 -9 q-9 -2 -14.5 -8 q-5.5 -6 -5.5 -15 l5 -137 q1 -10 -5 -16 q-6 -6 -15 -7 l-27 -1 q-9 0 -15.5 5.5 q-6.5 5.5 -7.5 14.5 l-6 138 q0 9 -6.5 15 q-6.5 6 -16.5 6 l-208 -8 q-8 0 -15 5.5 q-7 5.5 -7 16.5 l-2 43 q0 10 6.5 16 q6.5 6 14.5 7 l24 0 q9 2 11 6 q2 4 -5 11 l-10 8 q-6 6 -7 15.5 q-1 9.5 5 16.5 l53 58 q7 7 11 13 q4 6 4 8 q0 5 3 4 q2 0 7 4.5 q5 4.5 11 11.5 l3 3 q6 7 15 7.5 q9 0.5 15 -6.5 l12 -9 q6 -6 17 -10.5 q11 -4.5 21 -4.5 l11 -1 q10 0 16 6.5 q6 6.5 5 15.5 l0 6 q0 9 6 16 q6 7 14 7 l27 1 q10 1 16.5 -5.5 q6.5 -6.5 6.5 -15.5 l1 -13 q0 -9 7 -15 q7 -6 16 -8 l97 -2 q10 -1 15.5 -7.5 q5.5 -6.5 5.5 -16.5 l-2 -44 q0 -9 -6 -15.5 q-6 -6.5 -16 -4.5 l-91 3 q-9 0 -14.5 -4.5 q-5.5 -4.5 -5.5 -10.5 q0 -7 6 -11.5 q6 -4.5 17 -4.5 l236 9 ZM464 231 q9 0 15.5 6 q6.5 6 6.5 14 q-2 7 -8 12.5 q-6 5.5 -15 7.5 l-76 2 q-9 1 -20 -4 q-11 -5 -17 -12 l-14 -15 q-7 -7 -4.5 -11.5 q2.5 -4.5 11.5 -3.5 l121 4 Z" /><glyph glyph-name="uni767D" unicode="&#x767d;" d="M883 569 q8 1 13.5 -3.5 q5.5 -4.5 4.5 -12.5 l-14 -552 q-1 -8 -6.5 -12.5 q-5.5 -4.5 -13.5 -4.5 l-60 1 q-8 0 -13 5 q-5 5 -5 14 l0 8 q1 6 -4 11 q-5 5 -13 4 l-373 -45 q-7 -1 -13 3.5 q-6 4.5 -8 11.5 l-5 48 q-1 8 3.5 13 q4.5 5 12.5 6 l385 46 q8 2 13 7.5 q5 5.5 5 13.5 l10 321 q0 7 -5.5 11.5 q-5.5 4.5 -13.5 3.5 l-424 -37 q-8 -1 -13 -6 q-5 -5 -5 -12 l-14 -412 q-1 -7 -6.5 -12 q-5.5 -5 -13.5 -4 l-55 1 q-8 0 -13 5 q-5 5 -4 14 l14 419 q0 7 -4.5 9.5 q-4.5 2.5 -10.5 -2.5 l-69 -53 q-7 -4 -14.5 -3.5 q-7.5 0.5 -12.5 7.5 l-34 40 q-5 7 -4 14 q1 7 7 11 l381 288 q5 4 13.5 3.5 q8.5 -0.5 12.5 -7.5 l35 -41 q4 -6 3 -13 q-1 -7 -7 -11 l-173 -131 q-6 -5 -5 -8 q1 -3 8 -2 l508 45 ZM292 472 q5 0 4 2 q0 2 -4 0 q-3 -2 0 -2 ZM413 225 q-8 -1 -14 4 q-6 5 -6 13 l-4 48 q-1 7 3.5 12 q4.5 5 12.5 6 l336 29 q8 1 13 -4 q5 -5 6 -12 l5 -48 q1 -7 -4 -13 q-5 -6 -12 -7 l-336 -28 Z" /><glyph glyph-name="uni7684" unicode="&#x7684;" d="M289 665 q13 -10 4 -24 l-176 -238 q-5 -5 -11.5 -6.5 q-6.5 -1.5 -12.5 3.5 l-40 29 q-5 5 -6.5 11.5 q-1.5 6.5 3.5 12.5 l176 238 q4 5 11 6.5 q7 1.5 12 -3.5 l40 -29 ZM929 -23 q0 -16 -16 -16 l-247 7 q-7 0 -12 5 q-5 5 -5 12 l2 62 q0 7 5 11.5 q5 4.5 12 4.5 l146 -4 q7 0 12 4.5 q5 4.5 4 11.5 l-13 394 q0 7 -5 12 q-5 5 -12 5 l-120 0 q-7 0 -14.5 -4.5 q-7.5 -4.5 -11.5 -9.5 l-42 -68 q-4 -6 -10.5 -8 q-6.5 -2 -12.5 2 l-47 29 q-6 4 -10 2 q-4 -2 -3 -10 l20 -374 q1 -8 -3.5 -12.5 q-4.5 -4.5 -12.5 -5.5 l-403 -12 q-16 0 -16 16 l25 326 q1 8 6 12.5 q5 4.5 12 3.5 l62 -5 q7 0 11.5 -5.5 q4.5 -5.5 3.5 -12.5 l-4 -52 q-1 -8 3.5 -12 q4.5 -4 12.5 -3 l147 19 q7 2 12 -2.5 q5 -4.5 7 -11.5 l6 -49 q2 -17 -14 -19 l-165 -22 q-7 -1 -12 -6.5 q-5 -5.5 -6 -12.5 l-4 -49 q0 -7 4.5 -12 q4.5 -5 11.5 -4 l200 6 q7 0 11.5 5 q4.5 5 4.5 12 l-15 272 q0 7 -5 11 q-5 4 -12 2 l-182 -39 q-7 -2 -12.5 1.5 q-5.5 3.5 -7.5 10.5 l-13 61 q-2 7 1.5 12.5 q3.5 5.5 10.5 7.5 l292 63 q7 2 12 -2 q5 -4 5 -12 l4 -61 q0 -16 9 -2 l142 228 q4 6 10.5 8 q6.5 2 12.5 -2 l52 -33 q6 -4 8 -10.5 q2 -6.5 -2 -12.5 l-28 -44 q-4 -6 -1.5 -10.5 q2.5 -4.5 9.5 -4.5 l153 0 q7 0 12 -4.5 q5 -4.5 5 -12.5 l20 -587 ZM728 160 q-5 -4 -12 -2.5 q-7 1.5 -11 7.5 l-91 142 q-9 14 5 23 l42 27 q5 4 12 2.5 q7 -1.5 11 -7.5 l91 -142 q9 -14 -5 -23 l-42 -27 Z" /><glyph glyph-name="uni7B2C" unicode="&#x7b2c;" d="M116 565 q-7 8 -7.5 18.5 q-0.5 10.5 7.5 18.5 l133 139 q9 8 21.5 12 q12.5 4 23.5 3 l202 -23 q11 -1 17.5 -9.5 q6.5 -8.5 6.5 -20.5 l-5 -34 q-1 -12 -9.5 -18 q-8.5 -6 -19.5 -5 l-97 11 q-12 2 -15 -3.5 q-3 -5.5 3 -14.5 l32 -48 q6 -9 4.5 -20 q-1.5 -11 -11.5 -17 l-10 -7 q-10 -7 -20.5 -4.5 q-10.5 2.5 -17.5 11.5 l-52 77 q-7 9 -16 10 q-9 1 -17 -7 l-90 -93 q-8 -7 -18 -7.5 q-10 -0.5 -18 7.5 l-27 24 ZM868 737 q12 -1 18.5 -9 q6.5 -8 5.5 -20 l-3 -34 q-1 -12 -9 -19 q-8 -7 -20 -6 l-64 6 q-12 1 -13.5 -3 q-1.5 -4 6.5 -12 l40 -35 q8 -9 8.5 -19 q0.5 -10 -6.5 -19 l-9 -10 q-7 -8 -18 -8.5 q-11 -0.5 -19 6.5 l-105 96 q-8 6 -18.5 5 q-10.5 -1 -17.5 -9 l-69 -87 q-7 -8 -18 -9.5 q-11 -1.5 -19 5.5 l-27 22 q-10 6 -11 17.5 q-1 11.5 6 19.5 l99 124 q7 9 19 14.5 q12 5.5 23 3.5 l221 -20 ZM865 532 q11 0 18 -7.5 q7 -7.5 6 -17.5 l-12 -129 q-1 -10 -9.5 -18 q-8.5 -8 -18.5 -10 l-288 -24 q-11 -1 -18.5 -7.5 q-7.5 -6.5 -6.5 -15.5 q0 -9 8 -15.5 q8 -6.5 18 -4.5 l299 5 q12 0 19 -7.5 q7 -7.5 4 -18.5 l-33 -269 q-1 -11 -9.5 -17 q-8.5 -6 -19.5 -5 l-183 30 q-10 2 -16.5 10.5 q-6.5 8.5 -5.5 19.5 l6 34 q3 12 11.5 18 q8.5 6 19.5 4 l91 -15 q12 -1 20.5 5.5 q8.5 6.5 9.5 16.5 l9 78 q3 12 -4 19.5 q-7 7.5 -19 7.5 l-195 -5 q-12 0 -19 -8 q-7 -8 -7 -18 l7 -178 q0 -10 -7.5 -18 q-7.5 -8 -18.5 -9 l-35 -1 q-11 -1 -18.5 7 q-7.5 8 -8.5 18 l-7 178 q0 12 -8 19.5 q-8 7.5 -19 7.5 l-18 -1 q-10 0 -14 -6.5 q-4 -6.5 3 -15.5 l12 -22 q6 -9 3.5 -19.5 q-2.5 -10.5 -11.5 -16.5 l-214 -131 q-9 -7 -19.5 -4 q-10.5 3 -15.5 12 l-19 30 q-6 9 -3.5 19.5 q2.5 10.5 11.5 17.5 l198 122 q9 5 8 8.5 q-1 3.5 -13 3.5 l-180 -3 q-12 0 -20.5 7.5 q-8.5 7.5 -9.5 17.5 l-14 141 q-1 11 6 19 q7 8 17 9 l285 23 q11 1 19 6 q8 5 8 10 q-1 6 -8.5 10 q-7.5 4 -19.5 4 l-256 -7 q-11 -1 -19 6.5 q-8 7.5 -8 19.5 l-1 35 q0 11 7 19 q7 8 18 8 l708 18 ZM422 279 q11 0 18.5 6 q7.5 6 7.5 14 q-1 8 -9 13 q-8 5 -18 4 l-192 -16 q-11 -1 -18.5 -5 q-7.5 -4 -5.5 -9 q0 -5 8 -8.5 q8 -3.5 19 -1.5 l190 3 ZM767 432 q11 1 18.5 3 q7.5 2 7.5 3 q2 2 -5.5 2.5 q-7.5 0.5 -19.5 0.5 l-211 -4 q-12 -2 -19 -5 q-7 -3 -7 -8 q0 -5 7.5 -7.5 q7.5 -2.5 19.5 -1.5 l209 17 Z" /><glyph glyph-name="uni7ED9" unicode="&#x7ed9;" d="M132 458 q-10 1 -13 7.5 q-3 6.5 2 14.5 l116 211 q4 8 13 10.5 q9 2.5 17 -2.5 l26 -15 q8 -4 11 -13 q3 -9 -2 -17 l-63 -113 q-5 -7 -1.5 -14 q3.5 -7 13.5 -8 l73 -8 q9 -1 15 -8.5 q6 -7.5 5 -15.5 l-4 -32 q-1 -9 -7.5 -14.5 q-6.5 -5.5 -14.5 -4.5 q-8 1 -16 -4.5 q-8 -5.5 -10 -13.5 l-26 -68 q-3 -8 1 -15 q4 -7 13 -8 l80 -6 q9 -1 15.5 -7.5 q6.5 -6.5 5.5 -15.5 l-3 -31 q-1 -9 -7.5 -15 q-6.5 -6 -16.5 -5 l-179 13 q-10 1 -14 7.5 q-4 6.5 0 14.5 l54 145 q3 8 -1 15 q-4 7 -13 8 l-69 8 ZM298 219 q7 5 16 4.5 q9 -0.5 15 -6.5 l45 -51 q5 -7 4.5 -15.5 q-0.5 -8.5 -6.5 -15.5 l-149 -131 q-7 -7 -16 -6.5 q-9 0.5 -15 7.5 l-46 50 q-6 7 -5.5 16.5 q0.5 9.5 7.5 14.5 l150 133 ZM621 703 q-1 -1 3.5 -6.5 q4.5 -5.5 12.5 -11.5 l236 -171 q8 -6 9 -15 q1 -9 -4 -16 l-18 -25 q-6 -7 -15 -9 q-9 -2 -16 4 l-233 170 q-7 6 -16.5 4.5 q-9.5 -1.5 -13.5 -9.5 l-122 -188 q-6 -8 -14.5 -9.5 q-8.5 -1.5 -16.5 2.5 l-26 18 q-8 4 -9.5 12.5 q-1.5 8.5 3.5 16.5 l169 258 q4 8 12.5 10 q8.5 2 16.5 -3 l27 -17 q8 -5 12 -9.5 q4 -4.5 3 -5.5 ZM754 481 q9 0 15.5 -7 q6.5 -7 6.5 -15 l0 -31 q0 -10 -6.5 -16 q-6.5 -6 -15.5 -6 l-242 0 q-11 0 -16.5 6 q-5.5 6 -5.5 16 l0 31 q0 8 5.5 15 q5.5 7 16.5 7 l242 0 ZM424 328 q0 9 6.5 15.5 q6.5 6.5 15.5 5.5 l401 -17 q11 -1 16.5 -7 q5.5 -6 5.5 -16 l0 -307 q0 -9 -5.5 -15 q-5.5 -6 -16.5 -6 l-401 0 q-9 0 -15.5 6 q-6.5 6 -6.5 15 l0 326 ZM499 78 q0 -10 6.5 -16.5 q6.5 -6.5 15.5 -6.5 l252 0 q9 0 15.5 6.5 q6.5 6.5 6.5 16.5 l0 159 q0 10 -6.5 16.5 q-6.5 6.5 -15.5 6.5 l-252 11 q-9 0 -15.5 -6 q-6.5 -6 -6.5 -15 l0 -172 Z" /><glyph glyph-name="uni8BB0" unicode="&#x8bb0;" d="M873 71 q-2 -10 -10 -15.5 q-8 -5.5 -18 -6.5 l-424 -16 q-9 -1 -15.5 5 q-6.5 6 -6.5 15 l7 386 q0 9 6.5 15.5 q6.5 6.5 15.5 6.5 l57 -2 q10 0 16 -2.5 q6 -2.5 6 -6.5 q0 -3 6.5 -6 q6.5 -3 15.5 -3 l190 -7 q9 -1 16 5.5 q7 6.5 8 15.5 l7 86 q1 9 -4.5 17 q-5.5 8 -15.5 11 l-284 80 q-8 2 -13 10.5 q-5 8.5 -2 17.5 l13 46 q2 8 10 13 q8 5 18 2 l356 -100 q9 -4 15 -11.5 q6 -7.5 5 -16.5 l-20 -251 q-1 -9 -8 -15.5 q-7 -6.5 -16 -4.5 l-276 10 q-10 0 -16.5 -6 q-6.5 -6 -6.5 -16 l-2 -169 q0 -9 5.5 -15.5 q5.5 -6.5 15.5 -5.5 l245 10 q8 1 16.5 5.5 q8.5 4.5 10.5 12.5 q2 7 9.5 10.5 q7.5 3.5 16.5 -0.5 l54 -16 q10 -3 14.5 -10.5 q4.5 -7.5 1.5 -16.5 l-19 -61 ZM311 613 q-2 -9 -8.5 -14.5 q-6.5 -5.5 -17.5 -3.5 l-86 13 q-9 1 -15 8.5 q-6 7.5 -3 16.5 l3 26 q1 11 8.5 15.5 q7.5 4.5 16.5 4.5 l88 -14 q9 -1 14 -8 q5 -7 4 -17 l-4 -27 ZM223 406 q1 10 -4.5 16 q-5.5 6 -14.5 6 l-74 -1 q-9 0 -15.5 6.5 q-6.5 6.5 -6.5 14.5 l-1 56 q0 9 6.5 15.5 q6.5 6.5 15.5 7.5 l188 3 q9 1 14.5 -5.5 q5.5 -6.5 4.5 -15.5 l-48 -383 q-2 -9 4 -14.5 q6 -5.5 15 -2.5 l31 8 q8 2 16 -3 q8 -5 11 -15 l12 -52 q3 -10 -2.5 -17.5 q-5.5 -7.5 -13.5 -9.5 l-171 -40 q-9 -2 -14.5 3 q-5.5 5 -4.5 14 l52 409 Z" /><glyph glyph-name="uni8BFA" unicode="&#x8bfa;" d="M180 695 q7 7 16 6.5 q9 -0.5 16 -6.5 l99 -102 q7 -6 6.5 -15 q-0.5 -9 -6.5 -15 l-47 -42 q-6 -6 -15 -6 q-9 0 -16 6 l-100 102 q-6 6 -6 15 q0 9 7 15 l46 42 ZM153 0 q-8 -4 -12.5 0 q-4.5 4 -2.5 13 l81 345 q2 10 -3 14.5 q-5 4.5 -14 2.5 l-57 -13 q-8 -2 -16 3 q-8 5 -10 13 l-12 48 q-2 10 2.5 17 q4.5 7 13.5 10 l207 47 q8 2 13.5 -2.5 q5.5 -4.5 3.5 -13.5 l-75 -321 q-3 -8 2.5 -12 q5.5 -4 13.5 -1 l13 5 q9 3 17.5 -0.5 q8.5 -3.5 11.5 -12.5 l19 -46 q3 -8 -1 -16 q-4 -8 -12 -11 l-183 -69 ZM706 464 q-9 0 -15 6.5 q-6 6.5 -6 15.5 l0 30 q0 9 -7 15.5 q-7 6.5 -15 7.5 l-100 3 q-11 0 -17.5 -6 q-6.5 -6 -9.5 -15 l-8 -51 q-1 -8 -8.5 -14 q-7.5 -6 -16.5 -4 l-52 9 q-9 1 -14 8 q-5 7 -4 17 l7 38 q1 9 -4.5 15.5 q-5.5 6.5 -14.5 6.5 l-2 0 q-9 1 -15 7.5 q-6 6.5 -6 15.5 l1 49 q2 10 8 16 q6 6 15 5 l15 0 q10 0 17.5 6 q7.5 6 8.5 16 l11 63 q1 9 8.5 14.5 q7.5 5.5 16.5 4.5 l52 -8 q8 -2 14 -9.5 q6 -7.5 3 -16.5 l-9 -52 q-1 -9 4 -15 q5 -6 15 -8 l85 -2 q8 -1 15 5.5 q7 6.5 7 15.5 l0 48 q0 9 6 15.5 q6 6.5 15 6.5 l53 0 q8 0 15 -6.5 q7 -6.5 7 -15.5 l0 -52 q0 -9 6 -15 q6 -6 16 -6 l52 -3 q9 0 15.5 -6 q6.5 -6 5.5 -17 l-2 -48 q0 -10 -6.5 -16 q-6.5 -6 -16.5 -6 l-48 2 q-10 0 -16 -6 q-6 -6 -6 -15 l0 -27 q0 -9 -7 -15.5 q-7 -6.5 -15 -6.5 l-53 0 ZM614 323 q-9 0 -18 -6.5 q-9 -6.5 -14 -14.5 l-8 -15 q-4 -8 -1.5 -13.5 q2.5 -5.5 12.5 -5.5 l269 0 q9 0 14.5 -6.5 q5.5 -6.5 4.5 -15.5 l-34 -224 q-1 -10 -8.5 -16 q-7.5 -6 -17.5 -7 l-288 -22 q-9 -1 -15.5 4.5 q-6.5 5.5 -6.5 14.5 l0 138 q0 9 -3 10 q-3 1 -7 -7 l-36 -65 q-4 -8 -13 -11 q-9 -3 -16 2 l-57 28 q-8 4 -11 12 q-3 8 1 16 l95 176 q4 8 0.5 13.5 q-3.5 5.5 -12.5 5.5 l-62 -4 q-9 -1 -16 5.5 q-7 6.5 -7 15.5 l-3 48 q-1 11 5 17 q6 6 15 7 l120 6 q9 1 19 7.5 q10 6.5 13 13.5 l38 70 q5 8 13.5 11 q8.5 3 16.5 -2 l56 -29 q8 -4 11.5 -12 q3.5 -8 -0.5 -16 l-8 -14 q-5 -8 -1.5 -14 q3.5 -6 12.5 -5 l201 11 q10 1 16 -5 q6 -6 7 -16 l4 -48 q0 -9 -6 -16 q-6 -7 -15 -7 l-259 -15 ZM600 96 q0 -8 6 -13.5 q6 -5.5 15 -5.5 l108 9 q10 1 17.5 7 q7.5 6 8.5 16 l7 44 q1 9 -5 15 q-6 6 -15 6 l-121 0 q-9 0 -15 -6 q-6 -6 -6 -15 l0 -57 Z" /><glyph glyph-name="uni8D1D" unicode="&#x8d1d;" d="M688 217 q-9 1 -15 7.5 q-6 6.5 -5 15.5 l32 383 q0 9 -5.5 15.5 q-5.5 6.5 -14.5 6.5 l-383 2 q-8 0 -15.5 -6 q-7.5 -6 -8.5 -16 l-31 -306 q-2 -9 -8.5 -14.5 q-6.5 -5.5 -16.5 -4.5 l-43 5 q-9 1 -15 7 q-6 6 -5 17 l40 385 q2 9 8 15.5 q6 6.5 17 6.5 l556 -4 q9 0 15 -6 q6 -6 6 -16 l-40 -477 q-2 -9 -8.5 -14.5 q-6.5 -5.5 -16.5 -4.5 l-43 3 ZM316 32 q-3 -8 -11.5 -11.5 q-8.5 -3.5 -16.5 1.5 l-41 18 q-8 3 -11.5 12 q-3.5 9 1.5 17 l206 443 q4 9 13 11.5 q9 2.5 17 -0.5 l39 -18 q9 -5 12 -13 q3 -8 -1 -17 l-207 -443 ZM817 -7 q-6 -7 -14.5 -8.5 q-8.5 -1.5 -16.5 3.5 l-290 205 q-8 6 -9.5 14.5 q-1.5 8.5 3.5 16.5 l26 36 q5 8 14 9 q9 1 16 -4 l290 -205 q8 -5 9 -14 q1 -9 -3 -16 l-25 -37 Z" /><glyph glyph-name="uni8F88" unicode="&#x8f88;" d="M648 717 q9 -2 14 -8 q5 -6 4 -12 q-3 -5 2.5 -8 q5.5 -3 14.5 -2 l68 8 q8 1 15.5 -4 q7.5 -5 8.5 -14 l6 -44 q1 -9 -4 -16.5 q-5 -7.5 -16 -7.5 l-106 -15 q-8 -1 -15.5 -4.5 q-7.5 -3.5 -8.5 -7.5 q-1 -4 5 -6.5 q6 -2.5 15 -1.5 l101 11 q10 0 16.5 -6 q6.5 -6 7.5 -15 l2 -22 q2 -9 -4 -16 q-6 -7 -15 -8 l-129 -11 q-8 -2 -15 -3 q-7 -1 -7 -1 q0 -1 6.5 -1.5 q6.5 -0.5 15.5 -0.5 l91 0 q8 0 15 -6.5 q7 -6.5 7 -15.5 l0 -44 q0 -9 -7 -15.5 q-7 -6.5 -15 -6.5 l-116 0 q-9 0 -16.5 -2.5 q-7.5 -2.5 -9.5 -7.5 q-1 -5 -7.5 -6 q-6.5 -1 -16.5 3 l-42 12 q-8 3 -12.5 11 q-4.5 8 -2.5 17 l80 275 q4 9 11.5 13 q7.5 4 16.5 2 l42 -13 ZM325 203 q-5 -6 -3 -10.5 q2 -4.5 11 -3.5 l187 15 q9 1 16.5 8 q7.5 7 8.5 15 l3 23 q3 9 10 14.5 q7 5.5 16 4.5 l43 -9 q10 -1 15 -8.5 q5 -7.5 4 -16.5 q-2 -9 3.5 -15 q5.5 -6 14.5 -4 l134 11 q9 1 16 -4.5 q7 -5.5 8 -16.5 l3 -43 q1 -9 -5 -15.5 q-6 -6.5 -14 -7.5 l-158 -14 q-9 -1 -16 -5 q-7 -4 -8 -11 q-1 -5 4.5 -8.5 q5.5 -3.5 15.5 -2.5 l134 10 q8 0 15 -5.5 q7 -5.5 8 -14.5 l4 -45 q1 -9 -5.5 -15.5 q-6.5 -6.5 -15.5 -7.5 l-155 -11 q-11 -1 -18 -7.5 q-7 -6.5 -9 -15.5 q-1 -8 -8 -12.5 q-7 -4.5 -17 -3.5 l-43 8 q-9 1 -14.5 4.5 q-5.5 3.5 -4.5 7.5 q0 5 -6 7.5 q-6 2.5 -15 0.5 l-315 -23 q-9 -1 -16 5 q-7 6 -7 15 l-4 44 q-1 10 5 16.5 q6 6.5 15 7.5 l337 25 q9 1 16 5 q7 4 8 10 q1 5 -4.5 8.5 q-5.5 3.5 -14.5 1.5 l-374 -31 q-8 -1 -11 3.5 q-3 4.5 4 12.5 l111 133 q6 7 4 11.5 q-2 4.5 -12 3.5 l-55 -7 q-10 -1 -17 4.5 q-7 5.5 -8 14.5 l-5 44 q-1 9 5 16 q6 7 15 8 l147 17 q9 0 19.5 6 q10.5 6 16.5 14 l11 13 q7 7 5 13.5 q-2 6.5 -12 9.5 l-8 2 q-9 2 -13.5 9.5 q-4.5 7.5 -2.5 16.5 q4 10 -1 14.5 q-5 4.5 -14 1.5 l-91 -14 q-9 -3 -16.5 2.5 q-7.5 5.5 -8.5 14.5 l-8 43 q-1 10 4 16.5 q5 6.5 13 9.5 l134 23 q4 1 8 1.5 q4 0.5 7 1.5 q3 0 7 1 q0 0 -6.5 0 q-6.5 0 -15.5 -1 l-135 -9 q-9 0 -16 6 q-7 6 -7 15 l-2 22 q0 9 5.5 16 q5.5 7 16.5 7 l156 11 q10 0 17.5 6.5 q7.5 6.5 10.5 14.5 q2 7 -3 12 q-5 5 -13 5 l-155 0 q-10 0 -16.5 6.5 q-6.5 6.5 -6.5 16.5 l0 22 q0 9 6.5 15.5 q6.5 6.5 16.5 6.5 l173 0 q8 0 16 5.5 q8 5.5 12 12.5 q2 8 9.5 12.5 q7.5 4.5 16.5 1.5 l41 -12 q10 -3 14.5 -10.5 q4.5 -7.5 0.5 -16.5 l-64 -232 q-3 -10 0 -20 q3 -10 10 -16 l33 -27 q6 -5 7 -14 q1 -9 -5 -17 l-5 -4 q-6 -7 -3.5 -11 q2.5 -4 11.5 -3 l374 43 q10 1 17 -5 q7 -6 8 -15 l5 -44 q1 -9 -4.5 -16 q-5.5 -7 -15.5 -8 l-465 -53 q-10 -1 -20 -6.5 q-10 -5.5 -16 -12.5 l-36 -44 Z" /><glyph glyph-name="uni8FD0" unicode="&#x8fd0;" d="M375 118 q5 -8 14 -14.5 q9 -6.5 17 -6.5 l456 -2 q10 0 16 -7 q6 -7 6 -15 l0 -44 q0 -9 -6.5 -15.5 q-6.5 -6.5 -15.5 -6.5 l-512 3 q-9 0 -18.5 6 q-9.5 6 -12.5 14 l-22 49 q-5 9 -11.5 10 q-6.5 1 -13.5 -5 l-91 -84 q-6 -6 -15 -5.5 q-9 0.5 -16 7.5 l-30 32 q-7 6 -6.5 15 q0.5 9 7.5 16 l92 86 q7 6 11.5 16.5 q4.5 10.5 5.5 19.5 l3 260 q0 9 -6.5 15 q-6.5 6 -15.5 5 l-65 -2 q-10 -1 -16.5 5.5 q-6.5 6.5 -6.5 15.5 l-2 43 q-1 10 5.5 16.5 q6.5 6.5 15.5 6.5 l157 7 q10 1 16 -5 q6 -6 6 -15 l-2 -273 q-1 -9 1.5 -21 q2.5 -12 6.5 -21 l48 -106 ZM483 602 q-9 2 -13.5 9.5 q-4.5 7.5 -2.5 16.5 l8 43 q3 8 11 13 q8 5 16 3 l235 -49 q10 -3 14.5 -10.5 q4.5 -7.5 3.5 -16.5 l-11 -42 q-1 -11 -8.5 -15.5 q-7.5 -4.5 -16.5 -2.5 l-236 51 ZM361 471 q-1 9 5.5 16 q6.5 7 15.5 7 l479 27 q10 2 16.5 -4.5 q6.5 -6.5 7.5 -15.5 l1 -36 q1 -9 -5 -15.5 q-6 -6.5 -16 -7.5 l-478 -28 q-9 0 -16 6 q-7 6 -7 16 l-3 35 ZM433 205 q-1 10 -2 16.5 q-1 6.5 2 6.5 q2 1 1 1 q-1 1 1 7 q2 6 7 14 l69 147 q5 9 13.5 12 q8.5 3 16.5 0 l39 -20 q8 -3 11.5 -12.5 q3.5 -9.5 -1.5 -16.5 l-45 -95 q-3 -8 0.5 -13 q3.5 -5 12.5 -4 l102 17 q10 2 14.5 5 q4.5 3 2.5 6 q-3 4 1.5 10.5 q4.5 6.5 11.5 10.5 l38 23 q7 5 16.5 2.5 q9.5 -2.5 13.5 -9.5 l52 -85 q5 -7 3 -16 q-2 -9 -10 -14 l-37 -23 q-8 -4 -16.5 -3 q-8.5 1 -13.5 8 q-3 7 -12.5 10.5 q-9.5 3.5 -18.5 1.5 l-241 -40 q-9 -1 -16.5 4 q-7.5 5 -9.5 16 l-5 33 ZM204 716 q6 7 15 8 q9 1 15 -6 l61 -51 q8 -5 8.5 -14.5 q0.5 -9.5 -5.5 -16.5 l-29 -33 q-5 -7 -14.5 -8 q-9.5 -1 -16.5 6 l-59 50 q-8 6 -9 15 q-1 9 5 16 l29 34 Z" /><glyph glyph-name="uni8FD9" unicode="&#x8fd9;" d="M288 547 q-8 -3 -16.5 -1.5 q-8.5 1.5 -12.5 9.5 l-63 98 q-5 8 -3 16.5 q2 8.5 10 13.5 l88 56 q8 5 17 3 q9 -2 14 -10 l62 -97 q5 -8 3 -17 q-2 -9 -10 -14 l-89 -57 ZM249 219 q6 7 10.5 18 q4.5 11 4.5 20 l0 111 q0 9 -6 14 q-6 5 -16 4 l-37 -4 q-10 -2 -16.5 4 q-6.5 6 -8.5 15 l-5 50 q-2 9 3.5 16 q5.5 7 14.5 8 l144 17 q9 1 14.5 -4 q5.5 -5 5.5 -16 l0 -254 q0 -9 -4 -20 q-4 -11 -10 -16 l-40 -40 q-5 -6 -4 -13.5 q1 -7.5 9 -11.5 l61 -30 q8 -3 20 -6 q12 -3 21 -4 l391 -9 q10 0 16 -6.5 q6 -6.5 6 -15.5 l-1 -50 q-1 -9 -7.5 -15 q-6.5 -6 -15.5 -6 l-410 10 q-10 0 -22 3 q-12 3 -21 7 l-109 52 q-7 5 -17.5 3 q-10.5 -2 -17.5 -9 l-29 -27 q-6 -7 -15.5 -7 q-9.5 0 -15.5 7 l-34 34 q-7 7 -7 15.5 q0 8.5 7 15.5 l141 140 ZM700 491 q2 9 -2.5 16 q-4.5 7 -13.5 7 l-238 21 q-9 1 -15 8 q-6 7 -5 16 l2 11 q0 9 6.5 15 q6.5 6 16.5 5 l120 -11 q10 -1 15 5 q5 6 3 15 l-25 93 q-2 9 2.5 16.5 q4.5 7.5 12.5 11.5 l103 25 q9 2 16.5 -2.5 q7.5 -4.5 9.5 -12.5 l37 -145 q2 -9 10 -15.5 q8 -6.5 18 -7.5 l105 -9 q8 -1 14.5 -8 q6.5 -7 5.5 -16 l-1 -11 q-1 -10 -7.5 -15.5 q-6.5 -5.5 -16.5 -4.5 l-38 3 q-9 1 -16.5 -4.5 q-7.5 -5.5 -10.5 -14.5 l-41 -153 q-2 -9 -5.5 -16.5 q-3.5 -7.5 -6.5 -9.5 q-3 -1 0.5 -6 q3.5 -5 10.5 -11 l81 -57 q8 -5 9.5 -14 q1.5 -9 -3.5 -16 l-52 -73 q-5 -8 -14 -9 q-9 -1 -17 5 l-131 93 q-8 6 -19 6.5 q-11 0.5 -19 -4.5 l-158 -88 q-8 -5 -17 -2.5 q-9 2.5 -13 10.5 l-31 54 q-4 8 -1.5 16.5 q2.5 8.5 10.5 13.5 l115 64 q8 5 8.5 12.5 q0.5 7.5 -7.5 11.5 l-38 28 q-8 6 -9 14.5 q-1 8.5 4 16.5 l51 71 q6 8 14.5 9 q8.5 1 16.5 -4 l89 -64 q8 -4 15.5 -7 q7.5 -3 11.5 -1 q4 3 8 10.5 q4 7.5 6 16.5 l24 92 Z" /><glyph glyph-name="uni9001" unicode="&#x9001;" d="M162 618 q-3 10 1 18.5 q4 8.5 13 10.5 l132 40 q9 3 17 -0.5 q8 -3.5 10 -12.5 l14 -42 q5 -21 -15 -29 l-132 -40 q-8 -2 -16 2 q-8 4 -11 13 l-13 40 ZM855 64 q8 -2 13 -9.5 q5 -7.5 3 -15.5 l-9 -44 q-2 -8 -9.5 -13.5 q-7.5 -5.5 -15.5 -3.5 l-554 116 q-9 1 -20 -2.5 q-11 -3.5 -15 -11.5 l-47 -56 q-5 -8 -13.5 -9.5 q-8.5 -1.5 -16.5 4.5 l-35 28 q-8 6 -8.5 14.5 q-0.5 8.5 5.5 15.5 l54 69 q6 5 10.5 17.5 q4.5 12.5 6.5 20.5 l45 238 q1 8 -2.5 19 q-3.5 11 -10.5 18 l-37 35 q-5 6 -5 15 q0 9 5 16 l32 31 q5 7 14.5 7 q9.5 0 16.5 -7 l70 -68 q5 -6 9.5 -16.5 q4.5 -10.5 1.5 -19.5 l-46 -250 q-2 -8 3 -15.5 q5 -7.5 14 -9.5 l541 -113 ZM450 304 q11 18 -10 18 l-17 0 q-10 0 -16 6.5 q-6 6.5 -6 16.5 l0 43 q0 10 6 16 q6 6 16 6 l73 0 q9 0 19 6 q10 6 15 13 l26 41 q10 18 -10 16 l-119 -16 q-8 -1 -15 4 q-7 5 -9 16 l-6 42 q-1 9 4 16 q5 7 15 9 l69 8 q8 3 12 9 q4 6 -2 14 l-28 55 q-4 9 -2 17.5 q2 8.5 10 11.5 l40 21 q9 5 17.5 2 q8.5 -3 11.5 -11 l43 -79 q5 -8 6 -14.5 q1 -6.5 -1 -7.5 q-3 -1 2 -1 q5 0 14 1 l47 5 q9 3 17.5 9 q8.5 6 11.5 16 l43 113 q4 10 12 13.5 q8 3.5 16 -0.5 l41 -15 q10 -2 13 -10.5 q3 -8.5 0 -18.5 l-25 -70 q-4 -8 -2 -13.5 q2 -5.5 6 -4.5 q6 1 10.5 -4.5 q4.5 -5.5 5.5 -16.5 l6 -42 q1 -10 -4.5 -16.5 q-5.5 -6.5 -14.5 -9.5 l-130 -17 q-20 -3 -8 -11 q5 -5 6.5 -12.5 q1.5 -7.5 -4.5 -15.5 l-21 -33 q-4 -7 -1.5 -13 q2.5 -6 12.5 -6 l193 0 q8 0 14 -6 q6 -6 6 -16 l0 -43 q0 -10 -6 -16.5 q-6 -6.5 -14 -6.5 l-250 0 q-9 0 -18 -5 q-9 -5 -15 -13 l-82 -127 q-6 -8 -14 -10 q-8 -2 -17 3 l-37 24 q-8 6 -9.5 14 q-1.5 8 4.5 16 l50 80 ZM678 288 q7 6 16 5.5 q9 -0.5 15 -7.5 l90 -106 q5 -8 4.5 -17 q-0.5 -9 -8.5 -15 l-33 -28 q-16 -12 -31 3 l-89 107 q-7 5 -5.5 14.5 q1.5 9.5 8.5 16.5 l33 27 Z" /><glyph glyph-name="uni9047" unicode="&#x9047;" d="M868 42 q9 -1 14.5 -8 q5.5 -7 4.5 -16 l-2 -31 q-1 -9 -8 -14.5 q-7 -5.5 -16 -4.5 l-609 57 q-9 1 -16 -3 q-7 -4 -8 -12 q-1 -8 -7 -12 q-6 -4 -16 -3 l-55 6 q-10 1 -16 7 q-6 6 -5 13 q2 6 -0.5 11.5 q-2.5 5.5 -7.5 6.5 q-4 0 -6.5 6.5 q-2.5 6.5 -1.5 15.5 l4 31 q1 9 4.5 15.5 q3.5 6.5 7.5 5.5 q5 0 9 5.5 q4 5.5 5 14.5 l37 327 q1 10 -4 15.5 q-5 5.5 -16 3.5 l-18 -1 q-9 -1 -16 5 q-7 6 -8 15 l-6 55 q-1 9 5 16 q6 7 15 8 l142 15 q10 1 15.5 -4.5 q5.5 -5.5 4.5 -14.5 l-52 -450 q-1 -8 4.5 -15 q5.5 -7 15.5 -8 l63 -6 q9 -1 9.5 0 q0.5 1 -8.5 4 l-23 8 q-9 2 -13 9.5 q-4 7.5 -2 16.5 l32 104 q3 8 11 12.5 q8 4.5 16 0.5 l30 -9 q9 -2 13 -10 q4 -8 2 -16 l-31 -101 q-4 -10 0.5 -16 q4.5 -6 14.5 -7 l492 -48 ZM344 372 q-9 -2 -14.5 3.5 q-5.5 5.5 -4.5 14.5 l23 308 q1 10 8 16 q7 6 16 5 l44 -3 q8 -1 14 -8 q6 -7 5 -16 l-5 -70 q0 -9 5.5 -15 q5.5 -6 14.5 -5 l23 4 q9 1 15.5 8.5 q6.5 7.5 7.5 16.5 l7 86 q0 10 7 16 q7 6 16 7 l230 12 q9 0 17 -6 q8 -6 10 -15 l50 -226 q3 -9 -2.5 -16.5 q-5.5 -7.5 -13.5 -9.5 l-226 -51 q-8 -1 -15 -8 q-7 -7 -7 -14 q-1 -7 5 -11 q6 -4 14 -2 l264 58 q9 2 14.5 -3 q5.5 -5 5.5 -15 l-24 -331 q-1 -8 -7.5 -14 q-6.5 -6 -16.5 -5 l-30 2 q-9 0 -15 7 q-6 7 -6 16 l18 231 q0 9 -6 14.5 q-6 5.5 -15 2.5 l-186 -41 q-10 -2 -16.5 -9.5 q-6.5 -7.5 -7.5 -16.5 l-4 -63 q-1 -9 4.5 -14 q5.5 -5 15.5 -3 l48 12 q8 2 12 9.5 q4 7.5 2 15.5 l-9 25 q-3 9 0.5 17.5 q3.5 8.5 12.5 10.5 l41 15 q8 3 16.5 -1 q8.5 -4 10.5 -12 l43 -117 q3 -9 -1 -16.5 q-4 -7.5 -13 -10.5 l-259 -59 q-9 -2 -15 3 q-6 5 -4 15 l10 153 q1 9 -4.5 14.5 q-5.5 5.5 -15.5 3.5 l-89 -20 q-9 -3 -16.5 2.5 q-7.5 5.5 -10.5 14.5 l-5 30 q-3 9 1.5 16.5 q4.5 7.5 14.5 9.5 l111 24 q8 3 15 9 q7 6 7 13 q1 7 -5 10.5 q-6 3.5 -15 2.5 l-115 -27 ZM578 536 q-1 -9 4.5 -14.5 q5.5 -5.5 14.5 -2.5 l115 26 q10 2 14.5 9.5 q4.5 7.5 3.5 16.5 l-16 69 q-3 10 -10.5 15.5 q-7.5 5.5 -16.5 5.5 l-79 -4 q-9 0 -16 -5.5 q-7 -5.5 -7 -13.5 q-1 -7 5 -11 q6 -4 16 -3 l14 3 q10 1 16.5 -4.5 q6.5 -5.5 8.5 -14.5 l1 -6 q1 -9 -4 -16.5 q-5 -7.5 -15 -8.5 l-25 -3 q-9 -1 -16 -8.5 q-7 -7.5 -8 -17.5 l0 -12 ZM420 501 q-1 -10 5.5 -14.5 q6.5 -4.5 14.5 -3.5 l25 6 q9 2 15.5 10 q6.5 8 7.5 17 l1 20 q2 10 -4 15 q-6 5 -15 4 l-24 -3 q-8 -1 -15 -8.5 q-7 -7.5 -8 -16.5 l-3 -26 ZM154 678 q-2 10 3.5 17.5 q5.5 7.5 14.5 9.5 l30 6 q9 1 16.5 -4.5 q7.5 -5.5 8.5 -13.5 l13 -66 q2 -10 -3 -17.5 q-5 -7.5 -14 -8.5 l-30 -5 q-10 -2 -17 3 q-7 5 -10 14 l-12 65 Z" /><glyph glyph-name="uni9732" unicode="&#x9732;" d="M458 80 q9 1 16 -5 q7 -6 8 -14 l1 -7 q0 -8 -6 -14.5 q-6 -6.5 -15 -8.5 l-290 -28 q-9 -1 -16 4.5 q-7 5.5 -8 14.5 l-1 6 q0 9 6 16 q6 7 15 8 l3 0 q8 1 15 8 q7 7 7 16 l0 116 q0 10 6 16 q6 6 16 6 l30 0 q9 0 15.5 -6 q6.5 -6 6.5 -16 l0 -109 q0 -9 6.5 -14 q6.5 -5 16.5 -4 l20 1 q10 1 16 8 q6 7 6 16 l0 139 q0 9 -6 15.5 q-6 6.5 -16 5.5 l-87 -4 q-8 0 -15 6.5 q-7 6.5 -8 15.5 l0 6 q0 9 0.5 15.5 q0.5 6.5 2.5 6.5 q2 0 2.5 6.5 q0.5 6.5 -0.5 15.5 l-6 54 q-1 9 4.5 16 q5.5 7 15.5 8 l30 3 q10 2 16 2 q6 0 6 -2 q0 -1 7 -1.5 q7 -0.5 15 -0.5 l83 0 q9 0 15.5 0 q6.5 0 6.5 -1 l7 0 q2 0 6 0 q4 0 9 1 l9 0 q9 1 16 -5 q7 -6 7 -16 l6 -97 q0 -10 -1 -16 q-1 -6 -2 -6 l-2 0 l-4 0 q-1 0 -2.5 -0.5 q-1.5 -0.5 -2.5 -0.5 q-5 0 -11.5 0 q-6.5 0 -11.5 -1 q-6 0 -10 -6.5 q-4 -6.5 -4 -15.5 l0 -43 q0 -10 6.5 -16 q6.5 -6 15.5 -5 l12 2 q11 1 17 -3.5 q6 -4.5 8 -13.5 q1 -8 -5 -13.5 q-6 -5.5 -15 -6.5 l-17 -1 q-9 -2 -15.5 -8.5 q-6.5 -6.5 -6.5 -16.5 l0 -11 q0 -9 6.5 -15 q6.5 -6 15.5 -5 l29 3 ZM359 303 q9 0 15 6 q6 6 5 17 l0 11 q-1 10 -7 16 q-6 6 -16 6 l-58 0 q-10 0 -15.5 -6 q-5.5 -6 -4.5 -16 l1 -16 q1 -9 8 -15.5 q7 -6.5 16 -4.5 l56 2 ZM839 226 q8 -4 12 -12.5 q4 -8.5 1 -16.5 l-7 -17 q-3 -8 -12 -11.5 q-9 -3.5 -17 -1.5 l-142 56 q-8 4 -19.5 3 q-11.5 -1 -19.5 -6 l-67 -41 q-8 -5 -7 -7.5 q1 -2.5 10 -0.5 l7 2 q5 1 9 1 q4 0 7 1 q4 0 6 1 q0 -1 6.5 -1 q6.5 0 16.5 0 l129 -2 q9 0 15.5 -1 q6.5 -1 6.5 -4 q0 -2 2 3 q0 2 7 1.5 q7 -0.5 15 -3.5 l6 -2 q9 -2 13 -10 q4 -8 2 -16 l-20 -65 q-2 -8 -3.5 -19 q-1.5 -11 -1.5 -16 q0 -7 -6 -12.5 q-6 -5.5 -15 -5.5 l-175 -12 q-9 -1 -17 2 q-8 3 -11 8 q-2 6 -4 10 q-2 4 -2 4 q-1 0 -1 0 l0 2 q0 1 -0.5 1.5 q-0.5 0.5 -0.5 2.5 q0 0 0 2 l0 0 q-1 3 -1 6 q-1 3 -1.5 7 q-0.5 4 -1.5 9 l-14 75 q-1 9 -8 11.5 q-7 2.5 -15 -1.5 l-8 -6 q-7 -4 -16.5 -2 q-9.5 2 -13.5 9 l-4 6 q-4 8 -2 16.5 q2 8.5 9 13.5 l91 56 q8 5 7.5 11 q-0.5 6 -8.5 10 l-10 2 q-8 3 -13.5 8 q-5.5 5 -4.5 8 q2 2 -1.5 -0.5 q-3.5 -2.5 -9.5 -10.5 l-1 -2 q-6 -5 -14.5 -6.5 q-8.5 -1.5 -15.5 3.5 l-24 20 q-8 5 -9.5 14.5 q-1.5 9.5 5.5 16.5 l75 94 q6 7 15 8 q9 1 16 -5 l24 -19 q7 -6 11.5 -10 q4.5 -4 3.5 -5 q0 -1 6 -1.5 q6 -0.5 15 -0.5 l117 2 q9 0 15.5 -1 q6.5 -1 6.5 -3 q0 -4 1 -3 q1 0 4.5 -5 q3.5 -5 8.5 -13 l3 -5 q5 -8 3 -16.5 q-2 -8.5 -10 -14.5 l-55 -33 q-8 -6 -7.5 -12 q0.5 -6 8.5 -9 l100 -39 ZM629 137 q-8 0 -14 -6 q-6 -6 -3 -14 l8 -44 q2 -8 9.5 -14.5 q7.5 -6.5 16.5 -5.5 l75 5 q9 1 17 7.5 q8 6.5 10 14.5 l11 34 q3 9 -1.5 15.5 q-4.5 6.5 -13.5 6.5 l-115 1 ZM716 330 q8 5 7 8.5 q-1 3.5 -10 3.5 l-99 -2 q-10 0 -17.5 -2 q-7.5 -2 -10.5 -4 q-2 -4 3 -8 q5 -4 13 -7 l40 -15 q8 -3 19.5 -2 q11.5 1 17.5 5 l37 23 ZM173 498 q-8 4 -12.5 12 q-4.5 8 -0.5 16 l32 99 q3 9 10 13.5 q7 4.5 14 2.5 q6 -2 17 -4 q11 -2 21 -1 l174 4 q9 1 15 4.5 q6 3.5 6 9.5 q0 5 -6 9 q-6 4 -15 4 l-218 0 q-9 0 -15.5 6.5 q-6.5 6.5 -6.5 15.5 l0 6 q0 9 6.5 15.5 q6.5 6.5 15.5 6.5 l547 0 q9 0 15 -6.5 q6 -6.5 6 -15.5 l0 -6 q0 -9 -6 -15.5 q-6 -6.5 -15 -6.5 l-210 0 q-10 0 -16 -4 q-6 -4 -6 -8 q0 -6 6 -9 q6 -3 16 -3 l206 5 q9 0 17 1 q8 1 11 2 q2 1 3.5 1 q1.5 0 3.5 -1 q1 -2 3 -2 q2 0 2 -5 q0 -2 3 -9.5 q3 -7.5 8 -14.5 l43 -88 q5 -8 1.5 -17 q-3.5 -9 -10.5 -12 l-17 -9 q-7 -5 -16 -1.5 q-9 3.5 -13 10.5 l-38 75 q-4 8 -13.5 14 q-9.5 6 -18.5 5 l-175 -3 q-10 -1 -16 -7.5 q-6 -6.5 -6 -15.5 l0 -121 q0 -9 -6.5 -15.5 q-6.5 -6.5 -16.5 -6.5 l-30 0 q-10 0 -16.5 6.5 q-6.5 6.5 -6.5 15.5 l0 118 q0 10 -6 16 q-6 6 -15 6 l-174 -4 q-10 0 -18 -6.5 q-8 -6.5 -12 -14.5 l-17 -55 q-2 -8 -10.5 -12 q-8.5 -4 -17.5 -2 l-6 2 ZM254 527 q-10 1 -16 7 q-6 6 -5 14 q1 8 8 12.5 q7 4.5 16 3.5 l144 -14 q9 -1 15.5 -7 q6.5 -6 5.5 -14 q-1 -8 -8 -13 q-7 -5 -16 -4 l-144 15 ZM254 452 q-9 1 -15.5 6.5 q-6.5 5.5 -5.5 13.5 q0 8 6.5 13 q6.5 5 16.5 5 l145 -8 q9 -1 15.5 -6 q6.5 -5 5.5 -13 q0 -8 -6.5 -13.5 q-6.5 -5.5 -16.5 -4.5 l-145 7 ZM571 527 q-9 1 -14.5 7 q-5.5 6 -4.5 14 q1 8 7.5 12.5 q6.5 4.5 16.5 3.5 l144 -14 q9 -1 14.5 -7 q5.5 -6 4.5 -14 q0 -8 -7 -13 q-7 -5 -16 -4 l-145 15 ZM573 452 q-11 1 -16.5 6.5 q-5.5 5.5 -5.5 13.5 q1 8 7 13 q6 5 16 5 l146 -8 q9 -1 15.5 -6 q6.5 -5 4.5 -13 q0 -8 -6.5 -13.5 q-6.5 -5.5 -16.5 -4.5 l-144 7 Z" /><glyph glyph-name="uni9762" unicode="&#x9762;" d="M884 523 q7 0 11 -4.5 q4 -4.5 4 -11.5 l-33 -531 q0 -6 -5.5 -10 q-5.5 -4 -12.5 -4 l-700 17 q-7 0 -11.5 5 q-4.5 5 -5.5 11 l-23 512 q0 7 4 11.5 q4 4.5 11 4.5 l277 0 q6 0 12.5 4 q6.5 4 10.5 11 l41 84 q3 7 0.5 11 q-2.5 4 -9.5 4 l-337 12 q-7 1 -11.5 6 q-4.5 5 -4.5 11 l3 74 q0 7 5 11.5 q5 4.5 12 4.5 l753 -30 q6 0 10.5 -4.5 q4.5 -4.5 4.5 -11.5 l-4 -73 q0 -7 -4.5 -12 q-4.5 -5 -11.5 -5 l-302 12 q-6 1 -13 -3 q-7 -4 -10 -11 l-39 -80 q-4 -7 -1 -11 q3 -4 10 -4 l369 0 ZM319 49 q7 0 11.5 4.5 q4.5 4.5 3.5 11.5 l-11 368 q0 6 -5.5 11 q-5.5 5 -10.5 5 l-106 0 q-7 0 -11.5 -5 q-4.5 -5 -4.5 -11 l17 -366 q1 -5 5.5 -10.5 q4.5 -5.5 11.5 -5.5 l100 -2 ZM603 433 q2 6 -2 11 q-4 5 -11 5 l-177 0 q-7 0 -11 -5 q-4 -5 -4 -11 l1 -45 q1 -7 5.5 -11 q4.5 -4 10.5 -4 l106 0 q7 0 11.5 -5 q4.5 -5 4.5 -12 l0 -74 q0 -7 -4.5 -11.5 q-4.5 -4.5 -11.5 -4.5 l-103 0 q-5 0 -10 -4.5 q-5 -4.5 -5 -11.5 l0 -2 q0 -7 5.5 -11.5 q5.5 -4.5 10.5 -4.5 l69 0 q7 0 12 -4.5 q5 -4.5 5 -11.5 l0 -43 q0 -6 -5 -10.5 q-5 -4.5 -12 -4.5 l-65 0 q-7 0 -11.5 -5 q-4.5 -5 -4.5 -11 l2 -79 q0 -7 5 -11.5 q5 -4.5 11 -4.5 l111 -4 q6 0 11.5 4.5 q5.5 4.5 6.5 11.5 l49 374 ZM820 433 q1 6 -3.5 11 q-4.5 5 -11.5 5 l-92 0 q-7 0 -12.5 -5 q-5.5 -5 -6.5 -11 l-50 -376 q-1 -7 3.5 -11.5 q4.5 -4.5 11.5 -4.5 l120 -4 q6 0 11 5 q5 5 5 12 l25 379 Z" /><glyph glyph-name="uni9875" unicode="&#x9875;" d="M425 504 q9 0 17.5 6.5 q8.5 6.5 11.5 14.5 l23 62 q4 8 0 14 q-4 6 -13 6 l-213 -11 q-9 0 -15.5 6.5 q-6.5 6.5 -7.5 15.5 l-4 68 q0 9 6 16 q6 7 16 7 l517 23 q8 0 14.5 -6.5 q6.5 -6.5 6.5 -15.5 l4 -68 q0 -9 -6 -16 q-6 -7 -16 -7 l-178 -8 q-5 0 -9 0 q-4 0 -7 0 q-3 0 -6 -1 q1 0 -1 -6.5 q-2 -6.5 -6 -14.5 l-25 -64 q-3 -8 1.5 -14.5 q4.5 -6.5 13.5 -6.5 l248 0 q9 0 15 -6 q6 -6 6 -16 l-11 -281 q0 -10 -6.5 -16 q-6.5 -6 -14.5 -5 l-44 1 q-9 1 -15.5 7.5 q-6.5 6.5 -6.5 15.5 l7 191 q1 9 -5.5 15.5 q-6.5 6.5 -15.5 6.5 l-416 0 q-9 0 -15 -6.5 q-6 -6.5 -5 -15.5 l22 -205 q1 -9 -4.5 -16 q-5.5 -7 -14.5 -8 l-55 -6 q-10 -1 -16.5 4.5 q-6.5 5.5 -8.5 15.5 l-32 302 q-1 10 4 16.5 q5 6.5 15 7.5 l56 6 q9 1 15.5 0.5 q6.5 -0.5 6.5 -2.5 q1 -2 7.5 -4 q6.5 -2 15.5 -2 l144 0 ZM392 5 q-3 -8 -11.5 -11.5 q-8.5 -3.5 -16.5 1.5 l-63 27 q-8 4 -11 12.5 q-3 8.5 0 16.5 l146 322 q5 8 13.5 11.5 q8.5 3.5 16.5 0.5 l62 -29 q8 -4 11.5 -12.5 q3.5 -8.5 -1.5 -16.5 l-146 -322 ZM821 0 q-3 -8 -11.5 -11 q-8.5 -3 -16.5 0 l-236 95 q-8 4 -11.5 12 q-3.5 8 -0.5 17 l16 40 q4 10 12.5 12.5 q8.5 2.5 16.5 -0.5 l236 -96 q8 -2 11.5 -10.5 q3.5 -8.5 -0.5 -16.5 l-16 -42 Z" /><glyph glyph-name="E" unicode="e" d="M527 -14 q0 -7 -4.5 -11.5 q-4.5 -4.5 -10.5 -4.5 l-428 0 q-16 0 -16 16 l0 347 q0 6 4.5 10.5 q4.5 4.5 11.5 4.5 l94 0 q6 0 10.5 -4.5 q4.5 -4.5 4.5 -10.5 l0 -222 q0 -6 4.5 -11 q4.5 -5 11.5 -5 l303 0 q6 0 10.5 -4.5 q4.5 -4.5 4.5 -10.5 l0 -94 ZM64 378 q-7 -1 -12 3 q-5 4 -6 10 l-6 47 q-1 6 3 11 q4 5 10 6 l434 59 q16 2 18 -14 l6 -46 q1 -7 -3 -12 q-4 -5 -10 -6 l-434 -58 ZM201 274 q-1 6 3 11 q4 5 10 6 l292 40 q6 1 11 -3 q5 -4 6 -11 l8 -59 q2 -6 -2 -11 q-4 -5 -11 -6 l-292 -40 q-6 -1 -11 3 q-5 4 -6 11 l-8 59 Z" /><glyph glyph-name="I" unicode="i" d="M114 -45 q-6 -1 -11 3 q-5 4 -6 11 l-63 476 q-1 6 3 11 q4 5 11 6 l124 16 q7 2 12 -2 q5 -4 6 -11 l62 -476 q2 -15 -14 -18 l-124 -16 Z" /><glyph glyph-name="L" unicode="l" d="M531 31 q1 -7 -3 -12 q-4 -5 -10 -6 l-452 -59 q-16 -2 -16 14 l0 506 q0 16 16 16 l125 0 q16 0 16 -16 l0 -328 q0 -6 4.5 -10.5 q4.5 -4.5 10.5 -2.5 l275 36 q16 2 18 -14 l16 -124 Z" /><glyph glyph-name="O" unicode="o" d="M532 -40 q0 -6 -4.5 -10.5 q-4.5 -4.5 -11.5 -3.5 l-457 24 q-6 1 -10.5 5.5 q-4.5 4.5 -3.5 11.5 l26 247 q1 6 5.5 10.5 q4.5 4.5 11.5 3.5 l62 -7 q16 -2 14 -17 l-15 -149 q-1 -6 3 -11 q4 -5 11 -5 l203 -11 q7 -1 12 3.5 q5 4.5 5 11.5 l17 211 q0 16 -15 14 l-266 -27 q-7 -1 -11.5 3.5 q-4.5 4.5 -5.5 10.5 l-13 125 q-1 6 3.5 11 q4.5 5 10.5 6 l453 46 q6 1 10.5 -3 q4.5 -4 3.5 -11 l-33 -423 q0 -4 -0.5 -6.5 q-0.5 -2.5 -0.5 -4.5 l0 -5 q0 0 -2 -16 l-2 -34 Z" /><glyph glyph-name="U" unicode="u" d="M105 -23 q-6 -1 -11 3 q-5 4 -6 11 l-44 432 q-1 6 3.5 11 q4.5 5 10.5 6 l125 12 q6 1 11 -3 q5 -4 6 -11 l44 -431 q1 -7 -3.5 -12 q-4.5 -5 -10.5 -5 l-125 -13 ZM551 -28 q0 -16 -15 -16 l-257 0 q-16 0 -16 16 l0 62 q0 16 16 16 l160 0 q16 0 16 16 l-11 368 q0 7 4.5 11.5 q4.5 4.5 10.5 4.5 l63 2 q7 0 11.5 -4.5 q4.5 -4.5 4.5 -10.5 l13 -465 Z" /><glyph glyph-name="V" unicode="v" d="M234 -37 q-6 -2 -12 0.5 q-6 2.5 -8 8.5 l-180 453 q-3 6 -0.5 12 q2.5 6 8.5 8 l117 46 q6 3 12 0.5 q6 -2.5 8 -8.5 l141 -354 q2 -6 6 -6 q4 0 7 5 l172 298 q4 5 10 7 q6 2 12 -2 l40 -23 q6 -3 7.5 -9.5 q1.5 -6.5 -1.5 -11.5 l-203 -352 q-3 -5 -5 -10 q-2 -5 -1 -6 q0 -4 -3 -5 q-4 -2 -7 -7 q-2 -4 -6 -2 q-2 1 -7.5 -0.5 q-5.5 -1.5 -11.5 -3.5 l-95 -38 Z" /><glyph glyph-name="Y" unicode="y" d="M190 285 q-5 -5 -11 -5.5 q-6 -0.5 -11 4.5 l-135 127 q-5 5 -5 11 q0 6 5 11 l85 91 q5 5 11.5 5.5 q6.5 0.5 11.5 -4.5 l134 -127 q5 -4 5.5 -10.5 q0.5 -6.5 -4.5 -11.5 l-86 -91 ZM484 517 q12 10 22 -1 l44 -45 q11 -11 0 -22 l-205 -197 q-5 -5 -8.5 -12.5 q-3.5 -7.5 -3.5 -14.5 l-12 -251 q-2 -15 -17 -15 l-62 3 q-7 1 -11.5 5.5 q-4.5 4.5 -3.5 11.5 l14 288 q0 6 3.5 13.5 q3.5 7.5 8.5 12.5 l231 224 Z" /><glyph glyph-name="uniFF0C" unicode="&#xff0c;" d="M234 -107 l-73 28 l46 123 l-38 8 l18 76 l125 -29 l-78 -206 Z" /></font>
</defs>
</svg>
